<?xml version="1.0" encoding="UTF-8"?>
<svg id="Calque_1" data-name="Calque 1" xmlns="http://www.w3.org/2000/svg" xmlns:xlink="http://www.w3.org/1999/xlink" viewBox="0 0 504.88 87.89">
  <defs>
    <style>
      .cls-1 {
        fill: none;
      }

      .cls-2 {
        clip-path: url(#clippath-1);
      }

      .cls-3 {
        fill: #221d20;
      }

      .cls-4 {
        clip-path: url(#clippath);
      }
    </style>
    <clipPath id="clippath">
      <rect class="cls-1" x="0" width="504.88" height="87.89"/>
    </clipPath>
    <clipPath id="clippath-1">
      <rect class="cls-1" x="0" width="504.88" height="87.89"/>
    </clipPath>
  </defs>
  <g class="cls-4">
    <g class="cls-2">
      <path class="cls-3" d="M355.58,68.54c0-6.08-3.15-9.95-10.89-9.95-7.19,0-11.89,3.6-12.17,9.4h6.08c.28-2.76,1.66-4.7,5.81-4.7,3.32,0,4.98,1.38,4.98,3.32,0,2.82-3.04,3.7-6.64,4.53-5.14,1.16-11.34,2.21-11.34,8.74,0,5.25,3.87,8.02,9.68,8.02,3.87,0,7.19-1.66,8.9-4.7h.22l.83,4.15h5.81l.28-.28-1.55-6.08v-12.44ZM349.67,76.56c0,4.42-3.21,6.91-7.47,6.91-2.49,0-4.42-1.27-4.42-3.87,0-2.93,2.93-3.87,6.03-4.7,1.99-.5,3.93-1.11,5.64-1.93h.22v3.59Z"/>
      <path class="cls-3" d="M309.46,67.71c-1.22,3.59-1.71,5.25-3.1,9.95h-.22c-1.27-4.7-1.71-6.36-2.93-9.95l-6.91-20.18h-9.4v39.82h6.36v-18.25c0-5.53-.22-10.23-.5-13.27h.28c.83,2.76,2.6,8.3,3.54,11.06l6.91,20.46h5.53l6.91-20.46c.94-2.77,2.71-8.3,3.54-11.06h.28c-.28,3.04-.5,7.74-.5,13.27v18.25h6.64v-39.82h-9.68l-6.75,20.18Z"/>
      <path class="cls-3" d="M230.99,58.03c0,2.21.11,3.6.28,5.25h-.28c-1.66-3.04-4.7-4.7-8.57-4.7-6.36,0-12.17,5.25-12.17,14.66s5.81,14.65,12.17,14.65c3.87,0,6.91-1.66,8.57-4.7h.28v4.15h6.08v-39.82h-6.36v10.51ZM224.08,82.92c-4.42,0-7.35-3.1-7.35-9.68s2.93-9.68,7.35-9.68c4.15,0,7.19,3.32,7.19,9.68s-3.04,9.68-7.19,9.68"/>
      <path class="cls-3" d="M256.43,58.58c-7.74,0-13.83,5.53-13.83,14.66s5.53,14.65,14.1,14.65c6.36,0,11.45-3.6,12.72-9.4h-6.08c-.83,2.6-3.32,4.42-6.64,4.42-3.48,0-7.02-2.27-7.69-8.02h20.41c.55-10.78-4.7-16.31-13-16.31M249.13,70.47c.72-4.2,3.26-6.91,7.3-6.91,3.32,0,6.36,2.21,6.64,6.91h-13.94Z"/>
      <path class="cls-3" d="M422.11,58.58c-7.74,0-13.83,5.53-13.83,14.66s5.53,14.65,14.1,14.65c6.36,0,11.45-3.6,12.72-9.4h-6.08c-.83,2.6-3.32,4.42-6.64,4.42-3.48,0-7.02-2.27-7.69-8.02h20.41c.55-10.78-4.7-16.31-13-16.31M414.81,70.47c.72-4.2,3.26-6.91,7.3-6.91,3.32,0,6.36,2.21,6.64,6.91h-13.93Z"/>
      <rect class="cls-3" x="440.3" y="47.52" width="6.58" height="6.36"/>
      <rect class="cls-3" x="466.4" y="47.52" width="6.36" height="39.82"/>
      <rect class="cls-3" x="440.41" y="59.14" width="6.36" height="28.2"/>
      <path class="cls-3" d="M368.75,64.94h-.28v-5.81h-6.08v28.2h6.36v-15.21c0-5.53,2.21-7.47,7.19-7.47h2.77v-5.81h-2.49c-3.59,0-5.81,1.94-7.47,6.08"/>
      <path class="cls-3" d="M491.84,58.58c-7.74,0-13.83,5.53-13.83,14.66s5.53,14.65,14.1,14.65c6.36,0,11.45-3.6,12.72-9.4h-6.08c-.83,2.6-3.32,4.42-6.64,4.42-3.48,0-7.02-2.27-7.69-8.02h20.41c.55-10.78-4.7-16.31-13-16.31M484.54,70.47c.72-4.2,3.26-6.91,7.3-6.91,3.32,0,6.36,2.21,6.64,6.91h-13.94Z"/>
      <rect class="cls-3" x="453.41" y="47.52" width="6.36" height="39.82"/>
      <path class="cls-3" d="M387.55,66.33c0-1.94,1.94-3.04,4.98-3.04s4.98,1.11,5.53,3.59h5.81c-.55-5.53-4.92-8.3-11.34-8.3s-10.51,3.04-10.51,8.3c0,11.34,17.14,6.64,17.14,12.72,0,1.94-1.94,3.6-5.53,3.6-3.87,0-6.08-1.66-6.64-4.7h-5.81c.55,5.81,4.42,9.4,12.44,9.4,6.91,0,11.06-3.59,11.06-8.85,0-11.34-17.14-6.64-17.14-12.72"/>
      <path class="cls-3" d="M455.01,3.87l-6.36,1.27v6.47h-5.81v5.25h5.81v16.87c0,3.87,2.21,6.08,6.08,6.08h7.47v-5.25h-4.42c-2.21,0-2.77-.55-2.77-2.76v-14.93h7.19v-5.25h-7.19V3.87Z"/>
      <path class="cls-3" d="M488.47,31.52c0-11.34-17.14-6.64-17.14-12.72,0-1.93,1.93-3.04,4.98-3.04s4.98,1.11,5.53,3.6h5.81c-.55-5.53-4.92-8.3-11.34-8.3s-10.51,3.04-10.51,8.3c0,11.34,17.14,6.64,17.14,12.72,0,1.94-1.94,3.59-5.53,3.59-3.87,0-6.08-1.66-6.64-4.7h-5.81c.55,5.81,4.42,9.4,12.44,9.4,6.91,0,11.06-3.59,11.06-8.85"/>
      <path class="cls-3" d="M393.85,29.31h15.32l3.65,10.51h7.36L405.58,0h-8.07l-14.38,39.82h6.97l3.76-10.51ZM399.55,13.27c.77-2.21,1.27-3.59,1.82-6.08h.28c.66,2.49,1.1,3.87,1.88,6.08l3.71,10.51h-11.45l3.76-10.51Z"/>
      <path class="cls-3" d="M342.81,39.82l3.87-5.81c1.33-1.99,2.88-4.53,2.88-4.53h.28s1.44,2.6,2.6,4.53l3.43,5.81h7.63l-10.62-14.93,9.24-13.27h-6.53l-2.82,4.31c-1.27,1.99-2.76,4.53-2.76,4.53h-.28s-1.55-2.6-2.76-4.53l-2.76-4.31h-7.24l9.4,13.27-10.51,14.93h6.97Z"/>
      <path class="cls-3" d="M440.64,11.34h-2.49c-3.59,0-5.81,1.94-7.47,6.08h-.28v-5.81h-6.08v28.2h6.36v-15.21c0-5.53,2.21-7.47,7.19-7.47h2.76v-5.81Z"/>
      <path class="cls-3" d="M295.25,35.67h.22l.83,4.15h5.81l.28-.28-1.55-6.08v-12.44c0-6.08-3.15-9.95-10.89-9.95-7.19,0-11.89,3.59-12.17,9.4h6.08c.28-2.77,1.66-4.7,5.81-4.7,3.32,0,4.98,1.38,4.98,3.32,0,2.82-3.04,3.71-6.64,4.53-5.14,1.16-11.34,2.21-11.34,8.74,0,5.25,3.87,8.02,9.68,8.02,3.87,0,7.19-1.66,8.9-4.7M287.45,35.95c-2.49,0-4.42-1.27-4.42-3.87,0-2.93,2.93-3.87,6.03-4.7,1.99-.5,3.93-1.11,5.64-1.94h.22v3.59c0,4.43-3.21,6.91-7.47,6.91"/>
      <path class="cls-3" d="M234.86,19.08v-.28c3.7-1.27,5.64-4.09,5.64-8.3C240.51,3.93,235.8,0,227.95,0h-15.76v39.82h16.59c8.46,0,13.55-4.26,13.55-11.34,0-4.92-2.49-8.07-7.47-9.4M219.1,5.25h8.3c4.31,0,6.64,2.1,6.64,6.08s-2.16,5.7-6.91,5.7h-8.02V5.25ZM228.23,34.56h-9.12v-12.44h8.85c5.09,0,7.35,1.88,7.35,6.08s-2.32,6.36-7.08,6.36"/>
      <path class="cls-3" d="M260.3,11.06c-7.74,0-13.83,5.53-13.83,14.65s5.53,14.65,14.1,14.65c6.36,0,11.45-3.59,12.72-9.4h-6.08c-.83,2.6-3.32,4.42-6.64,4.42-3.48,0-7.02-2.27-7.69-8.02h20.41c.55-10.78-4.7-16.31-13-16.31M253,22.95c.72-4.2,3.26-6.91,7.3-6.91,3.32,0,6.36,2.21,6.64,6.91h-13.93Z"/>
      <rect class="cls-3" x="364.6" y="22.51" width="15.48" height="5.25"/>
      <path class="cls-3" d="M325.06,27.65c0,4.7-2.49,7.47-6.36,7.47-3.43,0-4.98-1.94-4.98-5.53V11.61h-6.36v19.08c0,5.81,3.32,9.68,8.85,9.68,4.15,0,6.97-1.66,8.9-4.7h.22v4.15h6.08V11.61h-6.36v16.04Z"/>
      <path class="cls-3" d="M95.9,61.18c-.36-.36-.73-.85-.97-1.21-.12-.36-.12-.61-.24-.97,0-.48,0-1.09-.24-1.58-.24-.97-.61-1.94-.97-2.91-.24-.48-.73-.97-.73-1.58,0,0-.12-.12-.24-.12-1.46-1.09-1.58-2.55-2.31-3.89-.24-.24-.36-.61-.61-.85-.49-.24-.85-.73-.97-1.21,0-.49-.48-.85-1.21-.97-1.46-.36-2.43-1.09-2.91-1.94-.61-.85-1.21-1.34-2.31-1.58-.36,0-.73-.24-.97-.36-.48-.12-.97-.36-1.46-.49-2.06-.36-4.13-.73-6.43-.61-.49,0-1.09-.24-1.58-.24-.85.12-1.58-.12-2.43-.24-.73-.12-1.58-.24-2.31-.49-.24,0-.61-.12-.97-.12-1.21,0-2.31-.12-3.52-.48h.61c.36-.12.73-.12.97-.12.36.12.73,0,1.09,0h.49c.49-.12.61.24,1.09.12h1.09c.12-.12.73-.12.85-.24.12-.12.12-.24.24-.24.24-.12.36-.12.24-.49v-.12c.12-.24.36-.61.48-.85.24-.36.24-.85.36-1.21,0-.24-.12-.36,0-.61.12-.12.24-1.46.61-1.82.36-.36.48-2.79.85-3.16,0-.12.12-.12.12-.24v-.24c-.12-.12-.12-.36,0-.49v-.24c-.24-.24-.12-.73-.24-1.09,0-.24-.12-.48-.24-.61v-.24c.12-.36-.73-2.43-.97-2.55-.12,0-.24,0-.36-.12,0-.12-.12-.24-.12-.36-.12-.24-.24-.49-.36-.61-.24-.12-.24-.24-.24-.48-.12-.12-.24-.24-.36-.36-.12-.12-.24-.12-.49-.24-.12,0-.12-.12-.24-.24v-.12c-.36-.12-.61-.36-.85-.48-.12-.12-.24-.12-.36-.24-.12,0-2.43-2.55-2.67-2.55-.12-.12-.24-.24-.24-.36s-.12-.36-.24-.49c-.12-.12-.12-.24-.36-.36,0,0-.12-.12-.24-.12-.12-.12-.24-.12-.49-.12-.48.12-1.21-1.09-1.82-1.09-.12,0-.24-.12-.48-.12-.12-.12-.36-.36-.49-.49-.24-.12-.36-.12-.49-.36-.12,0-.24,0-.24-.12h-.36c-.24,0-.49-.12-.61-.24-.24-.12-.48-.12-.73-.24-.24,0-.36-.12-.49-.24-.36-.36-.85-.49-1.34-.85-.24,0-.36-.12-.61-.36-.12,0-.24-.12-.36-.12-.36,0-.61-.24-.85-.36-.24-.12-.48-.12-.61-.24-.24-.12-.36-.24-.61-.36-.12-.12-.24-.24-.49-.24-.24-.12-.36-.36-.61-.48-.24-.24-2.06-2.31-2.43-2.55,0,0-.12,0-.12-.12-.12-.24-.24-.36-.49-.36-.24-.12-.49-.24-.61-.36-.24-.24-.61-.36-.97-.36-.73-.12-1.46-.48-2.18-.73-.12,0-.12-.12-.24-.12-.24-.12-.61-.24-.85-.36-.36-.12-.48-.36-.73-.48-.36-.12-.61-.24-.85-.36-.12-.12-.73-1.09-.97-1.34-.36-.24-1.09-1.94-1.58-2.06-.12,0-.24-.12-.24-.12q-.36-.48-.85-.85c-.12,0-.36-.12-.49-.24-.36-.12-.61-.24-.85-.36-.12-.12-.24-.12-.36-.24,0-.12-.12-.12-.24-.12-.61-.12-1.09-.24-1.7-.24h-.48C33.63.12,33.26,0,32.78,0h-3.03c-.49.12-1.09.12-1.7.12h-.36C27.31.12,26.95,0,26.59,0,26.1,0,25.61,0,25.13.12c-.36,0-.85.12-1.21.24-.36.12-.61,0-.85,0h-.85c-.36,0-.61,0-.85.12-.24.12-.36.12-.61,0h-.24c-.49-.12-.85,0-1.21.36-.12,0-.36.12-.49.24-.12.12-.36.24-.61.36-.24.12-.61.24-.97.36-.36,0-.73.12-1.09.36-.24.12-.61.36-.85.49-.24.24-.61.49-.97.49-.12.12-.36.24-.48.36-.36.36-.73.49-1.21.61-.12,0-1.34,1.09-1.34,1.34-.12.12-.73,1.21-.73,1.34s-.36,1.94-.36,2.06c-.12.12-.24.36-.24.61v.49c0,.24-.12.36-.12.49s-.12.24-.24.36c-.12.24-.24.36-.24.49,0,.24-.24.49-.36.49-.49.12-.97.36-1.34.73h-.12c-.36.12-.73.36-.85.73,0,.12-.12.12-.24.24-.12,0-.12.24-.24.36-.12.24-.24.49-.36.73-.12.24-.36.36-.49.48-.24.12-.36.24-.48.49,0,.12-.12.24-.12.36-.12.24-2.67,3.76-2.79,4.01v.12c0,.36-.12.61-.24.85,0,.12,0,.24-.12.36s-.36.36-.36.61c-.12.24-.36.36-.61.48-.12,0-.49,1.94-.61,2.19,0,.36.12.61.24.97.12.12.12.24.12.49-.12.12-.12.36-.12.61-.12.24-.12.48.12.73.12.36.24.73.24,1.09,0,.24,0,.36-.12.49-.12.36-.12.61-.24.97-.12.24,0,.36,0,.61.12.24.12.36-.12.61v.36c.24.61.36,1.21.61,1.82.12.12.12.36.12.49-.12.36-.12.73-.12,1.09,0,.24-.12.49-.12.73,0,.12,0,.36-.12.61.12.12.24.24.24.36.12.12.24.24.36.24q.12.12.24.12c.12.24.36.36.61.61.12.12.36.24.48.36.24.12.24.24.49.36,0,.36.36.61.49.73.36.12.73.24,1.09.36.36.12.73.24,1.21.24.12,0,.24,0,.36.12.61.24,1.34.36,1.94.61.36.12.73.36.97.61.36.12.61.24.97.36.36,0,.73,0,1.09.12h1.82c.49.12.97.12,1.46.12s.97.12,1.58.12c.12,0,.36,0,.61.12h.61c.36-.12.73-.12,1.09-.24.48-.12,1.09-.24,1.7-.24.12,0,.24,0,.36-.12.12,0,.24,0,.36-.12.49-.24.97-.36,1.46-.36.49-.12.97-.12,1.34-.24.24-.12.49-.12.73-.12.36,0,.85,0,1.21.12.61,0,1.21.12,1.82.12.12,0,.36,0,.49.12.36,0,.73.12,1.21,0h.85c.12,0,.36,0,.61-.12.12-.12.24-.12.36-.12.73,0,1.34-.12,1.94-.24.61-.12,1.21-.24,1.82-.24.12,0,.24-.12.36-.12.36-.12.73-.12,1.21-.12h1.94c.24,0,.36.12.61.12.12,0,.36.12.48.12.24,0,.36-.24.61-.24.24-.12.49-.12.73-.24h.12c.24,0,.49,0,.73-.12.24-.12.48-.12.73-.12h.49c.73,0,1.58,0,2.31.12h.49c.61-.12,1.09-.12,1.58,0h.24c.36-.12.73,0,1.09,0,.61.12,1.21.24,1.82.36h1.82c.24,0,.36.12.48.12h.49c.61-.12,1.21-.12,1.82,0h.48c.49-.12,1.09-.24,1.58-.24h.73c-1.34.48-2.67,2.55-4.25,2.67-.36.12-.85.12-1.21.24-1.34.36-2.55.73-3.88.97-1.21.24-2.79,2.06-4.25,1.94-.24,0-.61.12-.97.24-1.58.36-14.08,4.73-15.78,4.98-1.94.36-3.4,1.82-5.34,2.31-.24.12-.48.12-.61.12-1.94,0-3.76,2.19-5.46,2.67-.85.24-1.34.85-1.7,1.46-.73,1.09-3.03-.12-4.01.73-.36.24-.48.49-.73.61-.73.61-1.7,1.21-2.55,1.58-.61.12-.97.61-1.34,1.09-.48.61-.73.24-1.34.73-.36.24-.85,1.46-1.7,2.43-.49.61-.85,1.09-.36,1.82.48.61-.36,1.58-.49,2.43-.24.97-.49,2.06-.12,2.79.61,1.21.49,1.34,1.09,2.67.24.73.36,1.46.61,2.19,0,.48.12.85.49,1.21.36.36.73.97.97,1.46.24.48.61.85,1.09,1.09,1.09.61,2.06,1.21,3.4,1.34.36.12.73.36.97.49.36.36.85.48,1.46.73.49.12,1.09.24,1.58.61.85.73,2.19,1.09,3.16,1.7.24.12.36.24.61.24,1.46.49,6.68,2.31,8.74,2.31h52.8c1.09,0,2.31-1.34,2.67-1.46.73-.61,4.49-1.82,4.85-2.55.61-1.34,1.34-1.46,2.19-2.55.73-.85,2.31-1.82,2.43-2.43.24-.97,1.21-2.67,1.94-3.28,1.94-1.7,3.64-2.67,3.88-4.61.12-.48.12-.97.12-1.34-.12-.85,0-1.58.24-2.43.24-.36.24-.73.24-1.09-.12-1.09-.36-2.19-.49-3.28,0-.49-.24-.85-.49-1.21"/>
      <path class="cls-3" d="M144.82.85c-.12.12-.24.24-.36.36-.36.24-.73.61-1.09,1.09-.12.24-.49.49-.73.61-.36.12-.73.36-.85.73,0,.36-.36.49-.61.61-.24.12-.48.24-.61.49-.49.73-1.09,1.09-1.7,1.7,0,.12-.12.12-.12.12-.73.12-.97.73-1.34,1.21-.24.24-.36.61-.61.85-.12.36-.48.61-.73.73-.36.12-.61.36-.73.73-.12.36-.36.85-.36,1.34-.12.24-.24.49-.36.73-.12.24-.24.36-.36.49-.36.12-.61.49-.85.85-.12.36-.36.61-.73.85-.49.49-.85.97-.97,1.58-.12.49-.36.73-.61,1.09-.24.12-.36.36-.36.61-.12.24-.24.36-.48.61-.36.24-.61.61-.73,1.09-.12.61-.48,1.09-.85,1.58-.36.36-.61.73-.73,1.21,0,.12-.12.24-.12.24-.36.61-.73,1.21-1.09,1.82-.24.36-.36.73-.61.97-.36.61-.61,1.09-1.09,1.58-.12.24-.24.49-.24.73-.12.61-.36,1.09-.97,1.34-.36.24-.48.49-.48.85-.12.49-.36.73-.61,1.09-.36.24-.49.48-.49.85-.12.36-.12.61-.24.85-.12.24-.12.36-.12.61,0,.36-.12.73-.49.85-.24.12-.36.36-.36.61-.24.49-.61.85-.85,1.34-.49.85-1.21,1.58-1.46,2.55-.36.49-.36,1.09-.49,1.58-.12.36-.12.73,0,1.09.24.48.24.85,0,1.21-.12.24-.12.36-.24.61,0,.24-.12.49-.36.61-.12.12-.24.36-.24.61,0,.73-.36,1.34-.85,1.94-.36.49-.73,1.09-.85,1.7,0,.49-.24.85-.49,1.09-.36.49-.61,1.09-.73,1.58-.24.36-.36.73-.61.97-.36.24-.73.61-.85,1.09-.12.24-.24.48-.49.73-.49.36-.73.85-1.09,1.34q-.12,0-.24.12c-.24.61-.85.97-1.21,1.46-.12.12-.24.24-.36.36-.36.24-.49.49-.49.85-.12.24-.12.49-.24.73-.12.49-.24.85-.61.97-.12.12-.12.24-.24.36-.24.36-.61.61-1.09.73-.24.12-.61.36-.85.48,0,0-.12,0-.12.12-.12,0-.24.12-.24.12,0,.49-.61.61-.61,1.21-.12.24-.24.49-.61.73h-.12c-.61.24-.61.73-.61,1.34v.61c0,.61-.12.97-.36,1.46-.12.49-.24.97-.36,1.34-.12.49-.36.85-.48,1.34-.24.36-.36.73-.24,1.21,0,.48,0,.97-.36,1.34-.12,0-.12.12-.12.24.12.36,0,.73,0,1.09v.36c.24.48.61,1.09.85,1.58.12.36.12.73.36.97-.12.85-.12,1.7,0,2.55v.24c-.12.49,0,.85,0,1.34.12.36,0,.73,0,1.09-.12,1.21-.12,2.31.12,3.4.12.49.36.73.36,1.21v1.94h34.72V31.08h24.76v56.33h24.28V0h-41.64c-.24.24-.48.48-.85.85"/>
    </g>
  </g>
</svg>