<?xml version="1.0" encoding="UTF-8"?>
<svg id="Calque_1" data-name="Calque 1" xmlns="http://www.w3.org/2000/svg" viewBox="0 0 594.06 159.36">
  <defs>
    <style>
      .cls-1 {
        fill: none;
        stroke: #000;
        stroke-miterlimit: 10;
      }
    </style>
  </defs>
  <g>
    <path d="M.45,54.11c0-9.99,5.81-16.39,15.49-16.39,8.96,0,13.91,5.76,14.54,12.74h-4.32c-.36-4.77-3.92-9-10.22-9-6.89,0-11.12,4.82-11.12,12.65s4.86,12.74,11.12,12.74,9.68-4.59,10.22-8.42h4.32c-.81,6.48-5.85,12.16-14.54,12.16-9.23,0-15.49-6.48-15.49-16.48Z"/>
    <path d="M42.55,70.59c-4.73,0-8.46-2.7-8.46-7.83,0-5.58,4.5-7.74,9.41-7.74h3.92c2.48,0,3.74-1.04,3.74-2.97,0-2.7-2.48-4.05-5.58-4.05-3.65,0-6.21,1.85-6.48,5.18h-4.05c.36-5.27,3.83-8.69,10.53-8.69s9.64,3.56,9.64,8.42v11.84c0,1.17.41,1.58,1.58,1.58h1.13v3.6h-2.66c-2.39,0-3.87-1.44-3.87-3.69v-1.44h-.09c-1.58,3.96-4.82,5.81-8.73,5.81ZM43.31,67.07c4.1,0,7.83-2.7,7.83-8.51v-2.79h-.09c-.86,1.8-2.43,2.7-5.45,2.7h-2.03c-3.87,0-5.27,2.03-5.27,4.28s1.44,4.32,5,4.32Z"/>
    <path d="M62.04,45.15h3.96v4.37h.09c1.17-2.48,3.56-5.04,7.56-5.04,3.69,0,6.35,2.16,7.38,5.72h.09c1.26-3.33,3.87-5.72,7.88-5.72,5.04,0,8.06,3.83,8.06,9.77v15.67h-4.05v-15.26c0-4.59-2.12-6.57-5.09-6.57-3.42,0-6.35,2.66-6.35,7.79v14.05h-4.05v-15.26c0-4.59-2.12-6.57-5.09-6.57-3.42,0-6.35,2.7-6.35,7.83v14h-4.05v-24.76Z"/>
    <path d="M102.65,45.15h4.01v2.57c0,.95,0,1.76-.04,2.7h.09c1.53-3.69,5.04-5.94,9.23-5.94,5.85,0,11.57,4.5,11.57,13.06s-5.72,13.06-11.57,13.06c-4.19,0-7.7-2.25-9.23-5.94h-.09c.09.95.09,1.76.09,2.7v11.57h-4.05v-33.77ZM114.94,67.07c4.91,0,8.33-3.87,8.33-9.54s-3.42-9.54-8.33-9.54-8.28,3.87-8.28,9.54,3.38,9.54,8.28,9.54Z"/>
    <path d="M132.01,60.01v-14.86h4.05v14.45c0,5.45,2.34,7.38,5.58,7.38,3.65,0,6.93-2.43,6.93-8.42v-13.42h4.05v24.76h-3.96v-4.64h-.09c-1.44,3.51-4.32,5.31-8.01,5.31-5.36,0-8.55-3.74-8.55-10.58Z"/>
    <path d="M157.17,61.72h4.23c.18,3.69,2.57,5.36,5.99,5.36s5.67-1.71,5.67-4.46c0-2.16-1.4-3.56-4.77-3.56h-2.66c-5.04,0-8.01-2.75-8.01-6.84,0-4.41,3.47-7.74,9.45-7.74s9.5,3.51,9.77,8.69h-4.23c-.18-3.29-2.03-5.18-5.54-5.18-3.2,0-5.22,1.58-5.22,4.05,0,2.21,1.58,3.24,4.1,3.24h2.93c5.58,0,8.42,3.2,8.42,7.25,0,4.68-3.78,8.06-9.91,8.06s-9.95-3.47-10.22-8.87Z"/>
    <path d="M199.77,70.59c-4.73,0-8.46-2.7-8.46-7.83,0-5.58,4.5-7.74,9.41-7.74h3.92c2.48,0,3.74-1.04,3.74-2.97,0-2.7-2.48-4.05-5.58-4.05-3.65,0-6.21,1.85-6.48,5.18h-4.05c.36-5.27,3.83-8.69,10.53-8.69s9.64,3.56,9.64,8.42v11.84c0,1.17.41,1.58,1.58,1.58h1.13v3.6h-2.66c-2.39,0-3.87-1.44-3.87-3.69v-1.44h-.09c-1.58,3.96-4.82,5.81-8.73,5.81ZM200.53,67.07c4.1,0,7.83-2.7,7.83-8.51v-2.79h-.09c-.86,1.8-2.43,2.7-5.45,2.7h-2.03c-3.87,0-5.27,2.03-5.27,4.28s1.44,4.32,5,4.32Z"/>
    <path d="M219.26,45.15h3.96v4.32h.09c1.17-2.61,2.52-4.32,6.48-4.32h2.39v3.6h-2.93c-4.14,0-5.94,2.48-5.94,7.2v13.96h-4.05v-24.76Z"/>
    <path d="M238.49,63.38v-14.63h-4.95v-3.6h4.95v-6.75h4.05v6.75h7.83v3.6h-7.83v14.63c0,2.12,1.08,2.93,2.97,2.93h5.09v3.6h-5.54c-4.32,0-6.57-2.16-6.57-6.53Z"/>
    <path d="M265.54,38.39h6.12l9.41,26.88h.09l9.41-26.88h6.12v31.52h-4.1v-20.08c0-1.8.04-3.6.04-5.4h-.09l-9.05,25.48h-4.77l-9.05-25.48h-.09c0,1.8.05,3.6.05,5.4v20.08h-4.1v-31.52Z"/>
    <path d="M301.52,57.53c0-7.97,4.95-13.06,12.07-13.06,6.66,0,11.75,4.41,11.75,11.75v2.66h-19.54c.31,4.64,3.15,8.19,7.88,8.19,3.42,0,6.08-1.85,7.07-4.77h4.37c-1.03,4.86-5.54,8.28-11.44,8.28-7.29,0-12.16-5.18-12.16-13.06ZM321.1,55.41c0-4.41-2.79-7.43-7.38-7.43s-7.29,3.24-7.83,7.43h15.22ZM315.16,35.69h4.5l-4.5,6.62h-3.6l3.6-6.62Z"/>
    <path d="M328.71,57.53c0-8.55,5.72-13.06,11.57-13.06,4.19,0,7.7,2.25,9.23,5.94h.09c-.09-.95-.09-1.76-.09-2.7v-12.97h4.05v35.16h-4.01v-2.57c0-.95,0-1.76.05-2.7h-.09c-1.53,3.69-5.04,5.94-9.23,5.94-5.85,0-11.57-4.5-11.57-13.06ZM341.27,67.07c4.91,0,8.28-3.87,8.28-9.54s-3.38-9.54-8.28-9.54-8.33,3.87-8.33,9.54,3.42,9.54,8.33,9.54Z"/>
    <path d="M360.18,36.37h4.14v4.14h-4.14v-4.14ZM360.23,45.15h4.05v24.76h-4.05v-24.76Z"/>
    <path d="M372.52,63.38v-14.63h-4.95v-3.6h4.95v-6.75h4.05v6.75h7.83v3.6h-7.83v14.63c0,2.12,1.08,2.93,2.97,2.93h5.09v3.6h-5.54c-4.32,0-6.57-2.16-6.57-6.53Z"/>
    <path d="M385.98,57.53c0-7.97,4.95-13.06,12.07-13.06,6.66,0,11.75,4.41,11.75,11.75v2.66h-19.54c.31,4.64,3.15,8.19,7.88,8.19,3.42,0,6.08-1.85,7.07-4.77h4.37c-1.03,4.86-5.54,8.28-11.44,8.28-7.29,0-12.16-5.18-12.16-13.06ZM405.56,55.41c0-4.41-2.79-7.43-7.38-7.43s-7.29,3.24-7.83,7.43h15.22Z"/>
    <path d="M414.34,45.15h3.96v4.32h.09c1.17-2.61,2.52-4.32,6.48-4.32h2.39v3.6h-2.93c-4.14,0-5.94,2.48-5.94,7.2v13.96h-4.05v-24.76Z"/>
    <path d="M430.55,45.15h3.96v4.32h.09c1.17-2.61,2.52-4.32,6.48-4.32h2.39v3.6h-2.93c-4.14,0-5.94,2.48-5.94,7.2v13.96h-4.05v-24.76Z"/>
    <path d="M453.11,70.59c-4.73,0-8.46-2.7-8.46-7.83,0-5.58,4.5-7.74,9.41-7.74h3.92c2.48,0,3.74-1.04,3.74-2.97,0-2.7-2.48-4.05-5.58-4.05-3.65,0-6.21,1.85-6.48,5.18h-4.05c.36-5.27,3.83-8.69,10.53-8.69s9.64,3.56,9.64,8.42v11.84c0,1.17.41,1.58,1.58,1.58h1.13v3.6h-2.66c-2.39,0-3.87-1.44-3.87-3.69v-1.44h-.09c-1.58,3.96-4.82,5.81-8.73,5.81ZM453.87,67.07c4.1,0,7.83-2.7,7.83-8.51v-2.79h-.09c-.86,1.8-2.43,2.7-5.45,2.7h-2.03c-3.87,0-5.27,2.03-5.27,4.28s1.44,4.32,5,4.32Z"/>
    <path d="M472.6,45.15h3.96v4.64h.09c1.49-3.29,4.37-5.31,8.19-5.31,5.22,0,8.37,3.74,8.37,10.58v14.86h-4.05v-14.45c0-5.36-2.34-7.38-5.58-7.38-3.51,0-6.93,2.43-6.93,8.42v13.42h-4.05v-24.76Z"/>
    <path d="M497.86,57.53c0-7.97,4.95-13.06,12.07-13.06,6.66,0,11.75,4.41,11.75,11.75v2.66h-19.54c.31,4.64,3.15,8.19,7.88,8.19,3.42,0,6.08-1.85,7.07-4.77h4.37c-1.03,4.86-5.54,8.28-11.44,8.28-7.29,0-12.16-5.18-12.16-13.06ZM517.45,55.41c0-4.41-2.79-7.43-7.38-7.43s-7.29,3.24-7.83,7.43h15.22ZM511.5,35.69h4.5l-4.5,6.62h-3.6l3.6-6.62Z"/>
    <path d="M525.05,57.53c0-7.97,4.95-13.06,12.07-13.06,6.66,0,11.75,4.41,11.75,11.75v2.66h-19.54c.31,4.64,3.15,8.19,7.88,8.19,3.42,0,6.08-1.85,7.07-4.77h4.37c-1.03,4.86-5.54,8.28-11.44,8.28-7.29,0-12.16-5.18-12.16-13.06ZM544.64,55.41c0-4.41-2.79-7.43-7.38-7.43s-7.29,3.24-7.83,7.43h15.22Z"/>
    <path d="M0,111.56c0-7.97,4.95-13.06,12.07-13.06,6.66,0,11.75,4.41,11.75,11.75v2.66H4.28c.31,4.64,3.15,8.19,7.88,8.19,3.42,0,6.08-1.85,7.07-4.77h4.37c-1.03,4.86-5.54,8.28-11.44,8.28-7.29,0-12.16-5.18-12.16-13.06ZM19.59,109.44c0-4.41-2.79-7.43-7.38-7.43s-7.29,3.24-7.83,7.43h15.22Z"/>
    <path d="M30.08,117.41v-14.63h-4.95v-3.6h4.95v-6.75h4.05v6.75h7.83v3.6h-7.83v14.63c0,2.12,1.08,2.93,2.97,2.93h5.09v3.6h-5.54c-4.32,0-6.57-2.16-6.57-6.53Z"/>
    <path d="M55.29,115.74h4.23c.18,3.69,2.57,5.36,5.99,5.36s5.67-1.71,5.67-4.46c0-2.16-1.4-3.56-4.77-3.56h-2.66c-5.04,0-8.01-2.75-8.01-6.84,0-4.41,3.47-7.74,9.45-7.74s9.5,3.51,9.77,8.69h-4.23c-.18-3.29-2.03-5.18-5.54-5.18-3.2,0-5.22,1.58-5.22,4.05,0,2.21,1.58,3.24,4.1,3.24h2.93c5.58,0,8.42,3.2,8.42,7.25,0,4.68-3.78,8.06-9.91,8.06s-9.95-3.47-10.22-8.87Z"/>
    <path d="M78.47,111.56c0-7.97,4.95-13.06,12.07-13.06,6.66,0,11.75,4.41,11.75,11.75v2.66h-19.54c.31,4.64,3.15,8.19,7.88,8.19,3.42,0,6.08-1.85,7.07-4.77h4.37c-1.03,4.86-5.54,8.28-11.44,8.28-7.29,0-12.16-5.18-12.16-13.06ZM98.06,109.44c0-4.41-2.79-7.43-7.38-7.43s-7.29,3.24-7.83,7.43h15.22Z"/>
    <path d="M105.26,115.74h4.23c.18,3.69,2.57,5.36,5.99,5.36s5.67-1.71,5.67-4.46c0-2.16-1.4-3.56-4.77-3.56h-2.66c-5.04,0-8.01-2.75-8.01-6.84,0-4.41,3.47-7.74,9.45-7.74s9.5,3.51,9.77,8.69h-4.23c-.18-3.29-2.03-5.18-5.54-5.18-3.2,0-5.22,1.58-5.22,4.05,0,2.21,1.58,3.24,4.1,3.24h2.93c5.58,0,8.42,3.2,8.42,7.25,0,4.68-3.78,8.06-9.91,8.06s-9.95-3.47-10.22-8.87Z"/>
    <path d="M138.94,111.56c0-7.97,4.95-13.06,12.07-13.06,6.66,0,11.75,4.41,11.75,11.75v2.66h-19.54c.31,4.64,3.15,8.19,7.88,8.19,3.42,0,6.08-1.85,7.07-4.77h4.37c-1.03,4.86-5.54,8.28-11.44,8.28-7.29,0-12.16-5.18-12.16-13.06ZM158.52,109.44c0-4.41-2.79-7.43-7.38-7.43s-7.29,3.24-7.83,7.43h15.22ZM152.58,89.72h4.5l-4.5,6.62h-3.6l3.6-6.62Z"/>
    <path d="M169.01,117.41v-14.63h-4.95v-3.6h4.95v-6.75h4.05v6.75h7.83v3.6h-7.83v14.63c0,2.12,1.08,2.93,2.97,2.93h5.09v3.6h-5.54c-4.32,0-6.57-2.16-6.57-6.53Z"/>
    <path d="M192.06,124.61c-4.73,0-8.46-2.7-8.46-7.83,0-5.58,4.5-7.74,9.41-7.74h3.92c2.48,0,3.74-1.04,3.74-2.97,0-2.7-2.48-4.05-5.58-4.05-3.65,0-6.21,1.85-6.48,5.18h-4.05c.36-5.27,3.83-8.69,10.53-8.69s9.64,3.56,9.64,8.42v11.84c0,1.17.41,1.58,1.58,1.58h1.13v3.6h-2.66c-2.39,0-3.87-1.44-3.87-3.69v-1.44h-.09c-1.58,3.96-4.82,5.81-8.73,5.81ZM192.83,121.1c4.1,0,7.83-2.7,7.83-8.51v-2.79h-.09c-.86,1.8-2.43,2.7-5.45,2.7h-2.03c-3.87,0-5.27,2.03-5.27,4.28s1.44,4.32,5,4.32Z"/>
    <path d="M215.61,118.67h-.09c.04.95.04,1.76.04,2.7v2.57h-4.01v-35.16h4.05v12.97c0,.95,0,1.76-.09,2.7h.09c1.53-3.69,5.04-5.94,9.23-5.94,5.85,0,11.57,4.5,11.57,13.06s-5.72,13.06-11.57,13.06c-4.19,0-7.7-2.25-9.23-5.94ZM223.85,121.1c4.91,0,8.33-3.87,8.33-9.54s-3.42-9.54-8.33-9.54-8.28,3.87-8.28,9.54,3.38,9.54,8.28,9.54Z"/>
    <path d="M241.05,88.78h4.05v35.16h-4.05v-35.16Z"/>
    <path d="M251.72,90.4h4.14v4.14h-4.14v-4.14ZM251.76,99.18h4.05v24.76h-4.05v-24.76Z"/>
    <path d="M260.36,115.74h4.23c.18,3.69,2.57,5.36,5.99,5.36s5.67-1.71,5.67-4.46c0-2.16-1.4-3.56-4.77-3.56h-2.66c-5.04,0-8.01-2.75-8.01-6.84,0-4.41,3.47-7.74,9.45-7.74s9.5,3.51,9.77,8.69h-4.23c-.18-3.29-2.03-5.18-5.54-5.18-3.2,0-5.22,1.58-5.22,4.05,0,2.21,1.58,3.24,4.1,3.24h2.93c5.58,0,8.42,3.2,8.42,7.25,0,4.68-3.78,8.06-9.91,8.06s-9.95-3.47-10.22-8.87Z"/>
    <path d="M283.73,115.74h4.23c.18,3.69,2.57,5.36,5.99,5.36s5.67-1.71,5.67-4.46c0-2.16-1.4-3.56-4.77-3.56h-2.66c-5.04,0-8.01-2.75-8.01-6.84,0-4.41,3.47-7.74,9.45-7.74s9.5,3.51,9.77,8.69h-4.23c-.18-3.29-2.03-5.18-5.54-5.18-3.2,0-5.22,1.58-5.22,4.05,0,2.21,1.58,3.24,4.1,3.24h2.93c5.58,0,8.42,3.2,8.42,7.25,0,4.68-3.78,8.06-9.91,8.06s-9.95-3.47-10.22-8.87Z"/>
    <path d="M306.92,111.56c0-7.97,4.95-13.06,12.07-13.06,6.66,0,11.75,4.41,11.75,11.75v2.66h-19.54c.31,4.64,3.15,8.19,7.88,8.19,3.42,0,6.08-1.85,7.07-4.77h4.37c-1.03,4.86-5.54,8.28-11.44,8.28-7.29,0-12.16-5.18-12.16-13.06ZM326.5,109.44c0-4.41-2.79-7.43-7.38-7.43s-7.29,3.24-7.83,7.43h15.22Z"/>
    <path d="M335.28,99.18h3.96v4.37h.09c1.17-2.48,3.56-5.04,7.56-5.04,3.69,0,6.35,2.16,7.38,5.72h.09c1.26-3.33,3.87-5.72,7.88-5.72,5.04,0,8.06,3.83,8.06,9.77v15.67h-4.05v-15.26c0-4.59-2.12-6.57-5.09-6.57-3.42,0-6.35,2.66-6.35,7.79v14.05h-4.05v-15.26c0-4.59-2.12-6.57-5.09-6.57-3.42,0-6.35,2.7-6.35,7.83v14h-4.05v-24.76Z"/>
    <path d="M374.94,111.56c0-7.97,4.95-13.06,12.07-13.06,6.66,0,11.75,4.41,11.75,11.75v2.66h-19.54c.31,4.64,3.15,8.19,7.88,8.19,3.42,0,6.08-1.85,7.07-4.77h4.37c-1.03,4.86-5.54,8.28-11.44,8.28-7.29,0-12.16-5.18-12.16-13.06ZM394.53,109.44c0-4.41-2.79-7.43-7.38-7.43s-7.29,3.24-7.83,7.43h15.22Z"/>
    <path d="M403.31,99.18h3.96v4.64h.09c1.49-3.29,4.37-5.31,8.19-5.31,5.22,0,8.37,3.74,8.37,10.58v14.86h-4.05v-14.45c0-5.36-2.34-7.38-5.58-7.38-3.51,0-6.93,2.43-6.93,8.42v13.42h-4.05v-24.76Z"/>
    <path d="M431.54,117.41v-14.63h-4.95v-3.6h4.95v-6.75h4.05v6.75h7.83v3.6h-7.83v14.63c0,2.12,1.08,2.93,2.97,2.93h5.09v3.6h-5.54c-4.32,0-6.57-2.16-6.57-6.53Z"/>
    <path d="M446.17,115.74h4.23c.18,3.69,2.57,5.36,5.99,5.36s5.67-1.71,5.67-4.46c0-2.16-1.4-3.56-4.77-3.56h-2.66c-5.04,0-8.01-2.75-8.01-6.84,0-4.41,3.47-7.74,9.45-7.74s9.5,3.51,9.77,8.69h-4.23c-.18-3.29-2.03-5.18-5.54-5.18-3.2,0-5.22,1.58-5.22,4.05,0,2.21,1.58,3.24,4.1,3.24h2.93c5.58,0,8.42,3.2,8.42,7.25,0,4.68-3.78,8.06-9.91,8.06s-9.95-3.47-10.22-8.87Z"/>
  </g>
  <line class="cls-1" x1="594.06" x2="594.06" y2="159.36"/>
</svg>