<?xml version="1.0" encoding="UTF-8"?>
<svg id="Calque_1" data-name="Calque 1" xmlns="http://www.w3.org/2000/svg" viewBox="0 0 326.56 113.51">
  <defs>
    <style>
      .cls-1 {
        fill: #1d1d1b;
      }
    </style>
  </defs>
  <polygon class="cls-1" points="231.53 24.58 225.31 7.47 227.49 7.47 232.34 20.69 236.7 7.47 240.55 7.47 234.49 24.58 231.53 24.58"/>
  <polygon class="cls-1" points="210.07 71.43 202.91 71.43 202.91 66.55 215.73 66.55 207.08 79.43 214.98 79.43 214.98 83.66 201.61 83.66 210.07 71.43"/>
  <polygon class="cls-1" points="142.51 90.49 136.5 109.5 130.59 90.49 125.46 90.49 125.46 113.2 127.79 113.2 127.79 94.82 134.76 113.2 138.49 113.2 145.05 94.94 145.05 113.2 147.23 113.2 147.23 90.49 142.51 90.49"/>
  <g>
    <path class="cls-1" d="M48.59,52.07H0V1.98h48.59v8.13h-23.68c-9.27,0-16.78,7.51-16.78,16.78v.28c0,9.27,7.51,16.78,16.78,16.78h23.68v8.13Z"/>
    <path class="cls-1" d="M71.07,52.07h-8.13V1.98h50.09v35.11l-41.96-.03v15.01ZM71.07,28.93h24.62c5.09.02,9.21-4.1,9.21-9.19v-.43c0-5.08-4.12-9.2-9.2-9.2h-24.63v18.82Z"/>
    <path class="cls-1" d="M50.09,113.18H0v-50.09h29.11v15h20.98s0,35.09,0,35.09ZM8.13,105.05h24.54c5.13,0,9.29-4.16,9.29-9.29v-.26c0-5.13-4.16-9.29-9.29-9.29h-3.56v.04h-8.13v-.04h-12.85v18.83ZM8.13,71.22v6.88h9.56c1.82,0,3.29-1.48,3.29-3.3v-.29c0-1.82-1.47-3.29-3.29-3.29h-9.56Z"/>
    <path class="cls-1" d="M91.75,63.09h-29.13v50.09h8.13v-35.74c0-3.44,2.79-6.22,6.22-6.22h.42c3.44,0,6.22,2.78,6.22,6.22v35.74h8.13v-35.74c0-3.44,2.79-6.22,6.22-6.22h.43c3.44,0,6.22,2.78,6.22,6.22v35.74h8.13v-50.09h-21Z"/>
    <path class="cls-1" d="M143.35,18.04c-1.03,4.39-4.14,6.85-9.36,6.85s-8.99-3.67-8.99-11.33c0-8.62,3.89-12.04,9.3-12.01,4.42.03,7.59,1.49,8.81,6.28l-2.12,1.77c-1.09-1.37-3.3-2.24-6.69-2.24-4.7,0-7.34,2.52-7.37,6.56-.03,4.07,2.43,6.63,7.5,6.63,3.55,0,6.28-1.49,7.09-3.92l1.84,1.4Z"/>
    <path class="cls-1" d="M146.45,16.33c0-6.63,2.92-9.18,7.16-9.18s7.16,2.55,7.16,9.18c0,5.97-2.99,8.56-7.16,8.56s-7.16-2.58-7.16-8.56M158.93,16.33c-.03-2.49-1.8-4.26-5.32-4.26s-5.29,1.77-5.32,4.26c-.03,3.7,2.43,4.92,5.32,4.92s5.35-1.21,5.32-4.92"/>
    <path class="cls-1" d="M165.59,15.56v9.02h-2.02V7.47h2.02v2.8c.9-2.02,2.8-3.11,5.13-3.11,4.14,0,5.91,1.9,5.91,7.99v9.43h-1.96v-7.5c0-3.17-1.18-4.6-4.11-4.6-2.36,0-4.14.9-4.98,3.08"/>
    <path class="cls-1" d="M192.28,9.89l-.59,3.27c-.81-.99-2.24-1.87-4.85-1.87-2.33,0-3.67.9-3.67,2.05,0,.81.9,1.37,3.64,1.65,4.45.44,6.07,1.99,6.07,5.26s-2.18,4.64-6.19,4.64c-3.67,0-5.44-1.53-6.35-3.21l.75-3.11c.97,1.24,2.55,2.33,5.35,2.33s3.95-.93,3.95-1.99c0-.84-1.12-1.4-3.76-1.68-4.05-.4-5.79-1.62-5.79-5.29,0-3.27,2.05-4.79,5.75-4.79,2.77,0,4.7,1,5.69,2.74"/>
    <path class="cls-1" d="M203.29,24.89c-4.67,0-7.06-3.58-7.06-8.62,0-6.63,3.27-9.12,7-9.12,4.23,0,7,3.11,7,10.2h-12.1c.4,2.74,2.24,4.04,5.1,4.08,2.74.03,4.04-.62,4.95-1.87l1.46,1.09c-1.03,2.36-3.33,4.23-6.35,4.23M198.12,15.34h10.08c0-1.9-1.96-3.76-5.13-3.76-2.33,0-4.51,1.4-4.95,3.76"/>
    <path class="cls-1" d="M217.25,24.58h-2.05v-11.73h-1.87v-5.38h2.64l1.06,2.43c.72-1.87,2.27-2.74,3.55-2.74,1.49,0,2.21.47,3.02,1.15l-1.18,5.17c-.37-.81-1.12-1.15-2.52-1.15-1.53,0-2.64,1.21-2.64,3.39v8.87Z"/>
    <path class="cls-1" d="M254.15,23.49c-1.09.93-2.55,1.4-4.98,1.4-4.42,0-6.53-2.12-6.53-5.13,0-3.42,2.37-5.35,6.22-5.35,1.46,0,3.64.28,4.95,1.18-.15-2.92-1.52-4.14-4.45-4.14-2.65,0-4.2.84-5.04,1.84l-.12-4.01c1.18-1.4,3.14-2.11,5.48-2.11,4.23,0,6.13,1.84,6.13,7.59v9.83h-1.25l-.4-1.09ZM253.84,20.25v-2.21c-1.28-.96-2.68-1.43-4.42-1.43-2.89,0-4.36,1.03-4.36,2.58,0,1.28,1.77,2.43,4.14,2.43,1.93,0,3.64-.43,4.64-1.37"/>
    <path class="cls-1" d="M265.6,24.89c-2.43,0-4.2-1.31-4.2-5.07v-7.19h-2.46v-4.85h2.46V3.73h2.02v4.05h4.67v4.85h-4.67v5.04c0,2.24,1.06,3.02,2.58,3.05,1.31.03,2.36-.4,2.86-.96l.84,3.14c-.56,1.24-2.33,1.99-4.11,1.99"/>
    <path class="cls-1" d="M272.13,16.33c0-6.63,2.92-9.18,7.16-9.18s7.15,2.55,7.15,9.18c0,5.97-2.98,8.56-7.15,8.56s-7.16-2.58-7.16-8.56M284.6,16.33c-.03-2.49-1.8-4.26-5.32-4.26s-5.29,1.77-5.32,4.26c-.03,3.7,2.43,4.92,5.32,4.92s5.35-1.21,5.32-4.92"/>
    <path class="cls-1" d="M293.12,13.19h-3.89v-5.1h5.91v16.49h-2.02v-11.39ZM292.63,5.13c-1.8,0-2.8-.84-2.8-2.61s.93-2.52,2.8-2.52c1.68,0,2.68.72,2.68,2.52s-1.06,2.61-2.68,2.61"/>
    <path class="cls-1" d="M303.73,24.58h-2.05v-11.73h-1.87v-5.38h2.64l1.06,2.43c.72-1.87,2.27-2.74,3.55-2.74,1.49,0,2.21.47,3.02,1.15l-1.18,5.17c-.37-.81-1.12-1.15-2.52-1.15-1.53,0-2.64,1.21-2.64,3.39v8.87Z"/>
    <path class="cls-1" d="M319.63,24.89c-4.67,0-7.06-3.58-7.06-8.62,0-6.63,3.27-9.12,7-9.12,4.23,0,7,3.11,7,10.2h-12.1c.41,2.74,2.24,4.04,5.1,4.08,2.74.03,4.04-.62,4.95-1.87l1.46,1.09c-1.03,2.36-3.33,4.23-6.35,4.23M314.46,15.34h10.08c0-1.9-1.96-3.76-5.13-3.76-2.33,0-4.51,1.4-4.95,3.76"/>
    <path class="cls-1" d="M128.13,48.21v5.91h-2.21v-22.71h6.85c5.51,0,8.55,2.39,8.55,8.71,0,5.6-2.92,8.09-8.59,8.09h-4.6ZM139.42,40.12c-.03-2.11-1.87-3.61-5.44-3.61h-5.85v7.09h5.85c3.52,0,5.48-1.56,5.44-3.48"/>
    <path class="cls-1" d="M149.41,42.73h-3.89v-5.1h5.91v16.49h-2.02v-11.39ZM148.91,34.67c-1.8,0-2.8-.84-2.8-2.61s.93-2.52,2.8-2.52c1.68,0,2.68.72,2.68,2.52s-1.06,2.61-2.68,2.61"/>
    <path class="cls-1" d="M162.54,54.43c-4.67,0-7.06-3.58-7.06-8.62,0-6.63,3.27-9.12,7-9.12,4.23,0,7,3.11,7,10.2h-12.1c.41,2.74,2.24,4.04,5.1,4.08,2.74.03,4.04-.62,4.95-1.87l1.46,1.09c-1.03,2.36-3.33,4.23-6.35,4.23M157.37,44.88h10.08c0-1.9-1.96-3.76-5.13-3.76-2.33,0-4.51,1.4-4.95,3.76"/>
    <path class="cls-1" d="M176.5,54.12h-2.05v-11.73h-1.87v-5.38h2.64l1.06,2.43c.72-1.87,2.27-2.74,3.55-2.74,1.49,0,2.21.47,3.02,1.15l-1.18,5.17c-.37-.81-1.12-1.15-2.52-1.15-1.53,0-2.64,1.21-2.64,3.39v8.87Z"/>
    <path class="cls-1" d="M189.88,54.12h-2.05v-11.73h-1.87v-5.38h2.64l1.06,2.43c.72-1.87,2.27-2.74,3.55-2.74,1.49,0,2.21.47,3.02,1.15l-1.18,5.17c-.37-.81-1.12-1.15-2.52-1.15-1.53,0-2.64,1.21-2.64,3.39v8.87Z"/>
    <path class="cls-1" d="M205.78,54.43c-4.67,0-7.06-3.58-7.06-8.62,0-6.63,3.27-9.12,7-9.12,4.23,0,7,3.11,7,10.2h-12.1c.41,2.74,2.24,4.04,5.1,4.08,2.74.03,4.04-.62,4.95-1.87l1.46,1.09c-1.03,2.36-3.33,4.23-6.35,4.23M200.61,44.88h10.08c0-1.9-1.96-3.76-5.13-3.76-2.33,0-4.51,1.4-4.95,3.76"/>
    <path class="cls-1" d="M125.27,60.95h8.09c5.04,0,7.47,2.55,7.47,5.94s-.81,4.7-2.49,5.38c2.21.78,2.99,2.27,2.99,5.23,0,3.52-2.55,6.16-7.37,6.16h-8.68v-22.71ZM135.01,71.18c2.92,0,3.58-1.18,3.58-2.67,0-1.28-.9-2.58-4.2-2.58h-6.88v5.26h7.5ZM135.01,78.68c2.77,0,3.98-1.31,3.98-2.77s-.96-2.49-4.07-2.49h-7.41v5.26h7.5Z"/>
    <path class="cls-1" d="M156.78,82.57c-1.09.93-2.55,1.4-4.98,1.4-4.42,0-6.53-2.12-6.53-5.13,0-3.42,2.36-5.35,6.22-5.35,1.46,0,3.64.28,4.95,1.18-.16-2.92-1.52-4.14-4.45-4.14-2.64,0-4.2.84-5.04,1.84l-.12-4.01c1.18-1.4,3.14-2.11,5.47-2.11,4.23,0,6.13,1.84,6.13,7.59v9.83h-1.24l-.4-1.09ZM156.47,79.34v-2.21c-1.28-.96-2.68-1.43-4.42-1.43-2.89,0-4.36,1.03-4.36,2.58,0,1.28,1.77,2.43,4.14,2.43,1.93,0,3.64-.43,4.64-1.37"/>
    <path class="cls-1" d="M166.24,83.66h-2.05v-11.73h-1.87v-5.38h2.64l1.06,2.43c.72-1.87,2.27-2.74,3.55-2.74,1.49,0,2.21.47,3.02,1.15l-1.18,5.17c-.37-.81-1.12-1.15-2.52-1.15-1.53,0-2.64,1.21-2.64,3.39v8.87Z"/>
    <path class="cls-1" d="M177.31,80.99l-.22,2.68h-1.71v-24.27h2.02v9.92c1.06-2.3,3.24-3.05,5.23-3.08,3.83-.03,6.41,2.46,6.41,9.15,0,5.44-2.4,8.59-6.56,8.59-2.27,0-4.17-1.28-5.16-2.99M187.21,75.39c0-2.43-1.59-4.11-4.79-4.11-3.64,0-4.98,1.71-5.01,4.11v3.08c1.03,1.4,2.4,1.84,4.88,1.84,3.3,0,4.95-1.9,4.92-4.92"/>
    <path class="cls-1" d="M195.76,72.27h-3.89v-5.1h5.91v16.49h-2.02v-11.39ZM195.26,64.22c-1.8,0-2.8-.84-2.8-2.61s.93-2.52,2.8-2.52c1.68,0,2.68.72,2.68,2.52s-1.06,2.61-2.68,2.61"/>
    <path class="cls-1" d="M225.37,83.97c-4.67,0-7.06-3.58-7.06-8.62,0-6.63,3.27-9.12,7-9.12,4.23,0,7,3.11,7,10.2h-12.1c.41,2.74,2.24,4.04,5.1,4.08,2.74.03,4.04-.62,4.95-1.87l1.46,1.09c-1.03,2.36-3.33,4.23-6.35,4.23M220.21,74.42h10.08c0-1.9-1.96-3.76-5.13-3.76-2.33,0-4.51,1.4-4.95,3.76"/>
    <path class="cls-1" d="M241.33,83.97c-2.43,0-4.2-1.31-4.2-5.07v-7.19h-2.46v-4.85h2.46v-4.05h2.02v4.05h4.67v4.85h-4.67v5.04c0,2.24,1.06,3.02,2.58,3.05,1.31.03,2.36-.4,2.86-.96l.84,3.14c-.56,1.24-2.33,1.99-4.11,1.99"/>
    <path class="cls-1" d="M163,112.11c-1.09.93-2.55,1.4-4.98,1.4-4.42,0-6.53-2.12-6.53-5.13,0-3.42,2.36-5.35,6.22-5.35,1.46,0,3.64.28,4.95,1.18-.16-2.92-1.52-4.14-4.45-4.14-2.65,0-4.2.84-5.04,1.84l-.12-4.01c1.18-1.4,3.14-2.11,5.47-2.11,4.23,0,6.13,1.84,6.13,7.59v9.83h-1.25l-.4-1.09ZM162.69,108.88v-2.21c-1.28-.96-2.68-1.43-4.42-1.43-2.89,0-4.35,1.03-4.35,2.58,0,1.28,1.77,2.43,4.14,2.43,1.93,0,3.64-.43,4.64-1.37"/>
    <path class="cls-1" d="M172.46,113.2h-2.05v-11.73h-1.87v-5.38h2.64l1.06,2.43c.72-1.87,2.27-2.74,3.55-2.74,1.49,0,2.21.47,3.02,1.15l-1.18,5.17c-.37-.81-1.12-1.15-2.52-1.15-1.53,0-2.64,1.21-2.64,3.39v8.87Z"/>
    <path class="cls-1" d="M193.83,98.52l-.59,3.27c-.81-.99-2.24-1.87-4.85-1.87-2.33,0-3.67.9-3.67,2.05,0,.81.9,1.37,3.64,1.65,4.45.44,6.07,1.99,6.07,5.26s-2.18,4.64-6.19,4.64c-3.67,0-5.44-1.53-6.35-3.21l.75-3.11c.97,1.24,2.55,2.33,5.35,2.33s3.95-.93,3.95-1.99c0-.84-1.12-1.4-3.76-1.68-4.05-.4-5.79-1.62-5.79-5.29,0-3.27,2.05-4.79,5.75-4.79,2.77,0,4.7,1,5.69,2.74"/>
    <path class="cls-1" d="M204.84,113.51c-4.67,0-7.06-3.58-7.06-8.62,0-6.63,3.27-9.12,7-9.12,4.23,0,7,3.11,7,10.2h-12.1c.4,2.74,2.24,4.04,5.1,4.08,2.74.03,4.04-.62,4.95-1.87l1.46,1.09c-1.03,2.36-3.33,4.23-6.35,4.23M199.68,103.96h10.08c0-1.9-1.96-3.76-5.13-3.76-2.33,0-4.51,1.4-4.95,3.76"/>
    <path class="cls-1" d="M218.47,101.82h-3.89v-5.1h5.91v16.49h-2.02v-11.39ZM217.97,93.76c-1.8,0-2.8-.84-2.8-2.61s.93-2.52,2.8-2.52c1.68,0,2.68.72,2.68,2.52s-1.06,2.61-2.68,2.61"/>
    <path class="cls-1" d="M227.18,108.57v-14.96h-2.74v-4.67h4.85v17.27c0,1.87.68,2.95,2.49,2.95,1.24,0,2.18-.34,2.77-.96l.87,3.39c-.68,1-1.96,1.93-4.2,1.93-2.74,0-4.04-1.46-4.04-4.95"/>
    <path class="cls-1" d="M239,108.57v-14.96h-2.74v-4.67h4.85v17.27c0,1.87.68,2.95,2.49,2.95,1.24,0,2.18-.34,2.77-.96l.87,3.39c-.68,1-1.96,1.93-4.2,1.93-2.74,0-4.04-1.46-4.04-4.95"/>
    <path class="cls-1" d="M255.24,113.51c-4.67,0-7.06-3.58-7.06-8.62,0-6.63,3.27-9.12,7-9.12,4.23,0,7,3.11,7,10.2h-12.1c.41,2.74,2.24,4.04,5.1,4.08,2.74.03,4.04-.62,4.95-1.87l1.46,1.09c-1.03,2.36-3.33,4.23-6.35,4.23M250.07,103.96h10.08c0-1.9-1.96-3.76-5.13-3.76-2.33,0-4.51,1.4-4.95,3.76"/>
  </g>
</svg>