<?xml version="1.0" encoding="UTF-8"?>
<svg id="Calque_1" data-name="Calque 1" xmlns="http://www.w3.org/2000/svg" viewBox="0 0 379.49 89.83">
  <defs>
    <style>
      .cls-1 {
        fill: #1d1d1b;
      }
    </style>
  </defs>
  <rect class="cls-1" y="1.99" width="21.83" height="87.79"/>
  <path class="cls-1" d="M34.52,89.78V31.42c0-9.97,2.51-17.37,7.54-22.19,5.03-4.82,12.73-7.23,23.11-7.23h15.57v20.48h-15.2c-3.03,0-5.3.77-6.84,2.3-1.53,1.53-2.3,3.79-2.3,6.78v5.76h24.34v20.48h-24.34v32h-21.89Z"/>
  <path class="cls-1" d="M132.61,89.78v-52.97c0-4.86-.99-8.57-2.97-11.13-1.98-2.55-4.87-3.83-8.67-3.83-3.6,0-6.46,1.25-8.58,3.74-2.12,2.49-3.19,5.84-3.19,10.05v1.04h19.56v20.6h-19.56v32.49h-21.76v-51.87c0-11.36,3.07-20.44,9.2-27.22,6.13-6.78,14.24-10.18,24.34-10.18s18.19,3.38,24.28,10.15c6.09,6.76,9.13,15.85,9.13,27.25v51.87h-21.76Z"/>
  <path class="cls-1" d="M165.91,89.83v-55.07c0-10.31,2.76-18.6,8.28-24.87,5.52-6.28,12.7-9.42,21.54-9.42,3.99,0,7.73.78,11.24,2.34,3.5,1.56,6.61,3.83,9.31,6.8,2.79-2.93,5.93-5.19,9.42-6.77,3.48-1.58,7.01-2.37,10.58-2.37,9.25,0,16.68,3.1,22.27,9.31,5.59,6.21,8.38,14.53,8.38,24.98v55.07h-21.65V31.39c0-2.84-.85-5.19-2.54-7.04-1.7-1.86-3.85-2.78-6.46-2.78s-4.79.93-6.53,2.78c-1.74,1.85-2.61,4.2-2.61,7.04v58.44h-21.51V31.39c0-2.84-.87-5.19-2.61-7.04-1.74-1.86-3.94-2.78-6.6-2.78s-4.77.93-6.46,2.78c-1.7,1.85-2.54,4.2-2.54,7.04v58.44h-21.51Z"/>
  <path class="cls-1" d="M278.47,89.36v-55.07c0-10.31,2.76-18.6,8.28-24.87,5.52-6.28,12.7-9.42,21.54-9.42,3.99,0,7.73.78,11.24,2.34,3.5,1.56,6.61,3.83,9.31,6.8,2.79-2.93,5.93-5.19,9.42-6.77,3.48-1.58,7.01-2.37,10.58-2.37,9.25,0,16.68,3.1,22.27,9.31,5.59,6.21,8.38,14.53,8.38,24.98v55.07h-21.65V30.92c0-2.84-.85-5.19-2.54-7.04-1.7-1.86-3.85-2.78-6.46-2.78s-4.79.93-6.53,2.78c-1.74,1.85-2.61,4.2-2.61,7.04v58.44h-21.51V30.92c0-2.84-.87-5.19-2.61-7.04-1.74-1.86-3.94-2.78-6.6-2.78s-4.77.93-6.46,2.78c-1.7,1.85-2.54,4.2-2.54,7.04v58.44h-21.51Z"/>
</svg>