<?xml version="1.0" encoding="UTF-8"?>
<svg id="Calque_1" data-name="Calque 1" xmlns="http://www.w3.org/2000/svg" xmlns:xlink="http://www.w3.org/1999/xlink" viewBox="0 0 2039.02 159.36">
  <defs>
    <style>
      .cls-1, .cls-2 {
        fill: none;
      }

      .cls-3 {
        fill: #1d1d1b;
      }

      .cls-4 {
        clip-path: url(#clippath-1);
      }

      .cls-5 {
        fill: #221d20;
      }

      .cls-2 {
        stroke: #000;
        stroke-miterlimit: 10;
      }

      .cls-6 {
        clip-path: url(#clippath);
      }
    </style>
    <clipPath id="clippath">
      <rect class="cls-1" x="644.21" y="48.55" width="504.88" height="87.89"/>
    </clipPath>
    <clipPath id="clippath-1">
      <rect class="cls-1" x="644.21" y="48.55" width="504.88" height="87.89"/>
    </clipPath>
  </defs>
  <g>
    <path d="M.45,54.11c0-9.99,5.81-16.39,15.49-16.39,8.96,0,13.91,5.76,14.54,12.74h-4.32c-.36-4.77-3.92-9-10.22-9-6.89,0-11.12,4.82-11.12,12.65s4.86,12.74,11.12,12.74,9.68-4.59,10.22-8.42h4.32c-.81,6.48-5.85,12.16-14.54,12.16-9.23,0-15.49-6.48-15.49-16.48Z"/>
    <path d="M42.55,70.59c-4.73,0-8.46-2.7-8.46-7.83,0-5.58,4.5-7.74,9.41-7.74h3.92c2.48,0,3.74-1.04,3.74-2.97,0-2.7-2.48-4.05-5.58-4.05-3.65,0-6.21,1.85-6.48,5.18h-4.05c.36-5.27,3.83-8.69,10.53-8.69s9.64,3.56,9.64,8.42v11.84c0,1.17.41,1.58,1.58,1.58h1.13v3.6h-2.66c-2.39,0-3.87-1.44-3.87-3.69v-1.44h-.09c-1.58,3.96-4.82,5.81-8.73,5.81ZM43.31,67.07c4.1,0,7.83-2.7,7.83-8.51v-2.79h-.09c-.86,1.8-2.43,2.7-5.45,2.7h-2.03c-3.87,0-5.27,2.03-5.27,4.28s1.44,4.32,5,4.32Z"/>
    <path d="M62.04,45.15h3.96v4.37h.09c1.17-2.48,3.56-5.04,7.56-5.04,3.69,0,6.35,2.16,7.38,5.72h.09c1.26-3.33,3.87-5.72,7.88-5.72,5.04,0,8.06,3.83,8.06,9.77v15.67h-4.05v-15.26c0-4.59-2.12-6.57-5.09-6.57-3.42,0-6.35,2.66-6.35,7.79v14.05h-4.05v-15.26c0-4.59-2.12-6.57-5.09-6.57-3.42,0-6.35,2.7-6.35,7.83v14h-4.05v-24.76Z"/>
    <path d="M102.65,45.15h4.01v2.57c0,.95,0,1.76-.04,2.7h.09c1.53-3.69,5.04-5.94,9.23-5.94,5.85,0,11.57,4.5,11.57,13.06s-5.72,13.06-11.57,13.06c-4.19,0-7.7-2.25-9.23-5.94h-.09c.09.95.09,1.76.09,2.7v11.57h-4.05v-33.77ZM114.94,67.07c4.91,0,8.33-3.87,8.33-9.54s-3.42-9.54-8.33-9.54-8.28,3.87-8.28,9.54,3.38,9.54,8.28,9.54Z"/>
    <path d="M132.01,60.01v-14.86h4.05v14.45c0,5.45,2.34,7.38,5.58,7.38,3.65,0,6.93-2.43,6.93-8.42v-13.42h4.05v24.76h-3.96v-4.64h-.09c-1.44,3.51-4.32,5.31-8.01,5.31-5.36,0-8.55-3.74-8.55-10.58Z"/>
    <path d="M157.17,61.72h4.23c.18,3.69,2.57,5.36,5.99,5.36s5.67-1.71,5.67-4.46c0-2.16-1.4-3.56-4.77-3.56h-2.66c-5.04,0-8.01-2.75-8.01-6.84,0-4.41,3.47-7.74,9.45-7.74s9.5,3.51,9.77,8.69h-4.23c-.18-3.29-2.03-5.18-5.54-5.18-3.2,0-5.22,1.58-5.22,4.05,0,2.21,1.58,3.24,4.1,3.24h2.93c5.58,0,8.42,3.2,8.42,7.25,0,4.68-3.78,8.06-9.91,8.06s-9.95-3.47-10.22-8.87Z"/>
    <path d="M199.77,70.59c-4.73,0-8.46-2.7-8.46-7.83,0-5.58,4.5-7.74,9.41-7.74h3.92c2.48,0,3.74-1.04,3.74-2.97,0-2.7-2.48-4.05-5.58-4.05-3.65,0-6.21,1.85-6.48,5.18h-4.05c.36-5.27,3.83-8.69,10.53-8.69s9.64,3.56,9.64,8.42v11.84c0,1.17.41,1.58,1.58,1.58h1.13v3.6h-2.66c-2.39,0-3.87-1.44-3.87-3.69v-1.44h-.09c-1.58,3.96-4.82,5.81-8.73,5.81ZM200.53,67.07c4.1,0,7.83-2.7,7.83-8.51v-2.79h-.09c-.86,1.8-2.43,2.7-5.45,2.7h-2.03c-3.87,0-5.27,2.03-5.27,4.28s1.44,4.32,5,4.32Z"/>
    <path d="M219.26,45.15h3.96v4.32h.09c1.17-2.61,2.52-4.32,6.48-4.32h2.39v3.6h-2.93c-4.14,0-5.94,2.48-5.94,7.2v13.96h-4.05v-24.76Z"/>
    <path d="M238.49,63.38v-14.63h-4.95v-3.6h4.95v-6.75h4.05v6.75h7.83v3.6h-7.83v14.63c0,2.12,1.08,2.93,2.97,2.93h5.09v3.6h-5.54c-4.32,0-6.57-2.16-6.57-6.53Z"/>
    <path d="M265.54,38.39h6.12l9.41,26.88h.09l9.41-26.88h6.12v31.52h-4.1v-20.08c0-1.8.04-3.6.04-5.4h-.09l-9.05,25.48h-4.77l-9.05-25.48h-.09c0,1.8.05,3.6.05,5.4v20.08h-4.1v-31.52Z"/>
    <path d="M301.52,57.53c0-7.97,4.95-13.06,12.07-13.06,6.66,0,11.75,4.41,11.75,11.75v2.66h-19.54c.31,4.64,3.15,8.19,7.88,8.19,3.42,0,6.08-1.85,7.07-4.77h4.37c-1.03,4.86-5.54,8.28-11.44,8.28-7.29,0-12.16-5.18-12.16-13.06ZM321.1,55.41c0-4.41-2.79-7.43-7.38-7.43s-7.29,3.24-7.83,7.43h15.22ZM315.16,35.69h4.5l-4.5,6.62h-3.6l3.6-6.62Z"/>
    <path d="M328.71,57.53c0-8.55,5.72-13.06,11.57-13.06,4.19,0,7.7,2.25,9.23,5.94h.09c-.09-.95-.09-1.76-.09-2.7v-12.97h4.05v35.16h-4.01v-2.57c0-.95,0-1.76.05-2.7h-.09c-1.53,3.69-5.04,5.94-9.23,5.94-5.85,0-11.57-4.5-11.57-13.06ZM341.27,67.07c4.91,0,8.28-3.87,8.28-9.54s-3.38-9.54-8.28-9.54-8.33,3.87-8.33,9.54,3.42,9.54,8.33,9.54Z"/>
    <path d="M360.18,36.37h4.14v4.14h-4.14v-4.14ZM360.23,45.15h4.05v24.76h-4.05v-24.76Z"/>
    <path d="M372.52,63.38v-14.63h-4.95v-3.6h4.95v-6.75h4.05v6.75h7.83v3.6h-7.83v14.63c0,2.12,1.08,2.93,2.97,2.93h5.09v3.6h-5.54c-4.32,0-6.57-2.16-6.57-6.53Z"/>
    <path d="M385.98,57.53c0-7.97,4.95-13.06,12.07-13.06,6.66,0,11.75,4.41,11.75,11.75v2.66h-19.54c.31,4.64,3.15,8.19,7.88,8.19,3.42,0,6.08-1.85,7.07-4.77h4.37c-1.03,4.86-5.54,8.28-11.44,8.28-7.29,0-12.16-5.18-12.16-13.06ZM405.56,55.41c0-4.41-2.79-7.43-7.38-7.43s-7.29,3.24-7.83,7.43h15.22Z"/>
    <path d="M414.34,45.15h3.96v4.32h.09c1.17-2.61,2.52-4.32,6.48-4.32h2.39v3.6h-2.93c-4.14,0-5.94,2.48-5.94,7.2v13.96h-4.05v-24.76Z"/>
    <path d="M430.55,45.15h3.96v4.32h.09c1.17-2.61,2.52-4.32,6.48-4.32h2.39v3.6h-2.93c-4.14,0-5.94,2.48-5.94,7.2v13.96h-4.05v-24.76Z"/>
    <path d="M453.11,70.59c-4.73,0-8.46-2.7-8.46-7.83,0-5.58,4.5-7.74,9.41-7.74h3.92c2.48,0,3.74-1.04,3.74-2.97,0-2.7-2.48-4.05-5.58-4.05-3.65,0-6.21,1.85-6.48,5.18h-4.05c.36-5.27,3.83-8.69,10.53-8.69s9.64,3.56,9.64,8.42v11.84c0,1.17.41,1.58,1.58,1.58h1.13v3.6h-2.66c-2.39,0-3.87-1.44-3.87-3.69v-1.44h-.09c-1.58,3.96-4.82,5.81-8.73,5.81ZM453.87,67.07c4.1,0,7.83-2.7,7.83-8.51v-2.79h-.09c-.86,1.8-2.43,2.7-5.45,2.7h-2.03c-3.87,0-5.27,2.03-5.27,4.28s1.44,4.32,5,4.32Z"/>
    <path d="M472.6,45.15h3.96v4.64h.09c1.49-3.29,4.37-5.31,8.19-5.31,5.22,0,8.37,3.74,8.37,10.58v14.86h-4.05v-14.45c0-5.36-2.34-7.38-5.58-7.38-3.51,0-6.93,2.43-6.93,8.42v13.42h-4.05v-24.76Z"/>
    <path d="M497.86,57.53c0-7.97,4.95-13.06,12.07-13.06,6.66,0,11.75,4.41,11.75,11.75v2.66h-19.54c.31,4.64,3.15,8.19,7.88,8.19,3.42,0,6.08-1.85,7.07-4.77h4.37c-1.03,4.86-5.54,8.28-11.44,8.28-7.29,0-12.16-5.18-12.16-13.06ZM517.45,55.41c0-4.41-2.79-7.43-7.38-7.43s-7.29,3.24-7.83,7.43h15.22ZM511.5,35.69h4.5l-4.5,6.62h-3.6l3.6-6.62Z"/>
    <path d="M525.05,57.53c0-7.97,4.95-13.06,12.07-13.06,6.66,0,11.75,4.41,11.75,11.75v2.66h-19.54c.31,4.64,3.15,8.19,7.88,8.19,3.42,0,6.08-1.85,7.07-4.77h4.37c-1.03,4.86-5.54,8.28-11.44,8.28-7.29,0-12.16-5.18-12.16-13.06ZM544.64,55.41c0-4.41-2.79-7.43-7.38-7.43s-7.29,3.24-7.83,7.43h15.22Z"/>
    <path d="M0,111.56c0-7.97,4.95-13.06,12.07-13.06,6.66,0,11.75,4.41,11.75,11.75v2.66H4.28c.31,4.64,3.15,8.19,7.88,8.19,3.42,0,6.08-1.85,7.07-4.77h4.37c-1.03,4.86-5.54,8.28-11.44,8.28-7.29,0-12.16-5.18-12.16-13.06ZM19.59,109.44c0-4.41-2.79-7.43-7.38-7.43s-7.29,3.24-7.83,7.43h15.22Z"/>
    <path d="M30.08,117.41v-14.63h-4.95v-3.6h4.95v-6.75h4.05v6.75h7.83v3.6h-7.83v14.63c0,2.12,1.08,2.93,2.97,2.93h5.09v3.6h-5.54c-4.32,0-6.57-2.16-6.57-6.53Z"/>
    <path d="M55.29,115.74h4.23c.18,3.69,2.57,5.36,5.99,5.36s5.67-1.71,5.67-4.46c0-2.16-1.4-3.56-4.77-3.56h-2.66c-5.04,0-8.01-2.75-8.01-6.84,0-4.41,3.47-7.74,9.45-7.74s9.5,3.51,9.77,8.69h-4.23c-.18-3.29-2.03-5.18-5.54-5.18-3.2,0-5.22,1.58-5.22,4.05,0,2.21,1.58,3.24,4.1,3.24h2.93c5.58,0,8.42,3.2,8.42,7.25,0,4.68-3.78,8.06-9.91,8.06s-9.95-3.47-10.22-8.87Z"/>
    <path d="M78.47,111.56c0-7.97,4.95-13.06,12.07-13.06,6.66,0,11.75,4.41,11.75,11.75v2.66h-19.54c.31,4.64,3.15,8.19,7.88,8.19,3.42,0,6.08-1.85,7.07-4.77h4.37c-1.03,4.86-5.54,8.28-11.44,8.28-7.29,0-12.16-5.18-12.16-13.06ZM98.06,109.44c0-4.41-2.79-7.43-7.38-7.43s-7.29,3.24-7.83,7.43h15.22Z"/>
    <path d="M105.26,115.74h4.23c.18,3.69,2.57,5.36,5.99,5.36s5.67-1.71,5.67-4.46c0-2.16-1.4-3.56-4.77-3.56h-2.66c-5.04,0-8.01-2.75-8.01-6.84,0-4.41,3.47-7.74,9.45-7.74s9.5,3.51,9.77,8.69h-4.23c-.18-3.29-2.03-5.18-5.54-5.18-3.2,0-5.22,1.58-5.22,4.05,0,2.21,1.58,3.24,4.1,3.24h2.93c5.58,0,8.42,3.2,8.42,7.25,0,4.68-3.78,8.06-9.91,8.06s-9.95-3.47-10.22-8.87Z"/>
    <path d="M138.94,111.56c0-7.97,4.95-13.06,12.07-13.06,6.66,0,11.75,4.41,11.75,11.75v2.66h-19.54c.31,4.64,3.15,8.19,7.88,8.19,3.42,0,6.08-1.85,7.07-4.77h4.37c-1.03,4.86-5.54,8.28-11.44,8.28-7.29,0-12.16-5.18-12.16-13.06ZM158.52,109.44c0-4.41-2.79-7.43-7.38-7.43s-7.29,3.24-7.83,7.43h15.22ZM152.58,89.72h4.5l-4.5,6.62h-3.6l3.6-6.62Z"/>
    <path d="M169.01,117.41v-14.63h-4.95v-3.6h4.95v-6.75h4.05v6.75h7.83v3.6h-7.83v14.63c0,2.12,1.08,2.93,2.97,2.93h5.09v3.6h-5.54c-4.32,0-6.57-2.16-6.57-6.53Z"/>
    <path d="M192.06,124.61c-4.73,0-8.46-2.7-8.46-7.83,0-5.58,4.5-7.74,9.41-7.74h3.92c2.48,0,3.74-1.04,3.74-2.97,0-2.7-2.48-4.05-5.58-4.05-3.65,0-6.21,1.85-6.48,5.18h-4.05c.36-5.27,3.83-8.69,10.53-8.69s9.64,3.56,9.64,8.42v11.84c0,1.17.41,1.58,1.58,1.58h1.13v3.6h-2.66c-2.39,0-3.87-1.44-3.87-3.69v-1.44h-.09c-1.58,3.96-4.82,5.81-8.73,5.81ZM192.83,121.1c4.1,0,7.83-2.7,7.83-8.51v-2.79h-.09c-.86,1.8-2.43,2.7-5.45,2.7h-2.03c-3.87,0-5.27,2.03-5.27,4.28s1.44,4.32,5,4.32Z"/>
    <path d="M215.61,118.67h-.09c.04.95.04,1.76.04,2.7v2.57h-4.01v-35.16h4.05v12.97c0,.95,0,1.76-.09,2.7h.09c1.53-3.69,5.04-5.94,9.23-5.94,5.85,0,11.57,4.5,11.57,13.06s-5.72,13.06-11.57,13.06c-4.19,0-7.7-2.25-9.23-5.94ZM223.85,121.1c4.91,0,8.33-3.87,8.33-9.54s-3.42-9.54-8.33-9.54-8.28,3.87-8.28,9.54,3.38,9.54,8.28,9.54Z"/>
    <path d="M241.05,88.78h4.05v35.16h-4.05v-35.16Z"/>
    <path d="M251.72,90.4h4.14v4.14h-4.14v-4.14ZM251.76,99.18h4.05v24.76h-4.05v-24.76Z"/>
    <path d="M260.36,115.74h4.23c.18,3.69,2.57,5.36,5.99,5.36s5.67-1.71,5.67-4.46c0-2.16-1.4-3.56-4.77-3.56h-2.66c-5.04,0-8.01-2.75-8.01-6.84,0-4.41,3.47-7.74,9.45-7.74s9.5,3.51,9.77,8.69h-4.23c-.18-3.29-2.03-5.18-5.54-5.18-3.2,0-5.22,1.58-5.22,4.05,0,2.21,1.58,3.24,4.1,3.24h2.93c5.58,0,8.42,3.2,8.42,7.25,0,4.68-3.78,8.06-9.91,8.06s-9.95-3.47-10.22-8.87Z"/>
    <path d="M283.73,115.74h4.23c.18,3.69,2.57,5.36,5.99,5.36s5.67-1.71,5.67-4.46c0-2.16-1.4-3.56-4.77-3.56h-2.66c-5.04,0-8.01-2.75-8.01-6.84,0-4.41,3.47-7.74,9.45-7.74s9.5,3.51,9.77,8.69h-4.23c-.18-3.29-2.03-5.18-5.54-5.18-3.2,0-5.22,1.58-5.22,4.05,0,2.21,1.58,3.24,4.1,3.24h2.93c5.58,0,8.42,3.2,8.42,7.25,0,4.68-3.78,8.06-9.91,8.06s-9.95-3.47-10.22-8.87Z"/>
    <path d="M306.92,111.56c0-7.97,4.95-13.06,12.07-13.06,6.66,0,11.75,4.41,11.75,11.75v2.66h-19.54c.31,4.64,3.15,8.19,7.88,8.19,3.42,0,6.08-1.85,7.07-4.77h4.37c-1.03,4.86-5.54,8.28-11.44,8.28-7.29,0-12.16-5.18-12.16-13.06ZM326.5,109.44c0-4.41-2.79-7.43-7.38-7.43s-7.29,3.24-7.83,7.43h15.22Z"/>
    <path d="M335.28,99.18h3.96v4.37h.09c1.17-2.48,3.56-5.04,7.56-5.04,3.69,0,6.35,2.16,7.38,5.72h.09c1.26-3.33,3.87-5.72,7.88-5.72,5.04,0,8.06,3.83,8.06,9.77v15.67h-4.05v-15.26c0-4.59-2.12-6.57-5.09-6.57-3.42,0-6.35,2.66-6.35,7.79v14.05h-4.05v-15.26c0-4.59-2.12-6.57-5.09-6.57-3.42,0-6.35,2.7-6.35,7.83v14h-4.05v-24.76Z"/>
    <path d="M374.94,111.56c0-7.97,4.95-13.06,12.07-13.06,6.66,0,11.75,4.41,11.75,11.75v2.66h-19.54c.31,4.64,3.15,8.19,7.88,8.19,3.42,0,6.08-1.85,7.07-4.77h4.37c-1.03,4.86-5.54,8.28-11.44,8.28-7.29,0-12.16-5.18-12.16-13.06ZM394.53,109.44c0-4.41-2.79-7.43-7.38-7.43s-7.29,3.24-7.83,7.43h15.22Z"/>
    <path d="M403.31,99.18h3.96v4.64h.09c1.49-3.29,4.37-5.31,8.19-5.31,5.22,0,8.37,3.74,8.37,10.58v14.86h-4.05v-14.45c0-5.36-2.34-7.38-5.58-7.38-3.51,0-6.93,2.43-6.93,8.42v13.42h-4.05v-24.76Z"/>
    <path d="M431.54,117.41v-14.63h-4.95v-3.6h4.95v-6.75h4.05v6.75h7.83v3.6h-7.83v14.63c0,2.12,1.08,2.93,2.97,2.93h5.09v3.6h-5.54c-4.32,0-6.57-2.16-6.57-6.53Z"/>
    <path d="M446.17,115.74h4.23c.18,3.69,2.57,5.36,5.99,5.36s5.67-1.71,5.67-4.46c0-2.16-1.4-3.56-4.77-3.56h-2.66c-5.04,0-8.01-2.75-8.01-6.84,0-4.41,3.47-7.74,9.45-7.74s9.5,3.51,9.77,8.69h-4.23c-.18-3.29-2.03-5.18-5.54-5.18-3.2,0-5.22,1.58-5.22,4.05,0,2.21,1.58,3.24,4.1,3.24h2.93c5.58,0,8.42,3.2,8.42,7.25,0,4.68-3.78,8.06-9.91,8.06s-9.95-3.47-10.22-8.87Z"/>
  </g>
  <line class="cls-2" x1="594.06" x2="594.06" y2="159.36"/>
  <g class="cls-6">
    <g class="cls-4">
      <path class="cls-5" d="M999.79,117.08c0-6.08-3.15-9.95-10.89-9.95-7.19,0-11.89,3.6-12.17,9.4h6.08c.28-2.76,1.66-4.7,5.81-4.7,3.32,0,4.98,1.38,4.98,3.32,0,2.82-3.04,3.7-6.64,4.53-5.14,1.16-11.34,2.21-11.34,8.74,0,5.25,3.87,8.02,9.68,8.02,3.87,0,7.19-1.66,8.9-4.7h.22l.83,4.15h5.81l.28-.28-1.55-6.08v-12.44ZM993.87,125.1c0,4.42-3.21,6.91-7.47,6.91-2.49,0-4.42-1.27-4.42-3.87,0-2.93,2.93-3.87,6.03-4.7,1.99-.5,3.93-1.11,5.64-1.93h.22v3.59Z"/>
      <path class="cls-5" d="M953.67,116.25c-1.22,3.59-1.71,5.25-3.1,9.95h-.22c-1.27-4.7-1.71-6.36-2.93-9.95l-6.91-20.18h-9.4v39.82h6.36v-18.25c0-5.53-.22-10.23-.5-13.27h.28c.83,2.76,2.6,8.3,3.54,11.06l6.91,20.46h5.53l6.91-20.46c.94-2.77,2.71-8.3,3.54-11.06h.28c-.28,3.04-.5,7.74-.5,13.27v18.25h6.64v-39.82h-9.68l-6.75,20.18Z"/>
      <path class="cls-5" d="M875.2,106.58c0,2.21.11,3.6.28,5.25h-.28c-1.66-3.04-4.7-4.7-8.57-4.7-6.36,0-12.17,5.25-12.17,14.66s5.81,14.65,12.17,14.65c3.87,0,6.91-1.66,8.57-4.7h.28v4.15h6.08v-39.82h-6.36v10.51ZM868.29,131.46c-4.42,0-7.35-3.1-7.35-9.68s2.93-9.68,7.35-9.68c4.15,0,7.19,3.32,7.19,9.68s-3.04,9.68-7.19,9.68"/>
      <path class="cls-5" d="M900.64,107.13c-7.74,0-13.83,5.53-13.83,14.66s5.53,14.65,14.1,14.65c6.36,0,11.45-3.6,12.72-9.4h-6.08c-.83,2.6-3.32,4.42-6.64,4.42-3.48,0-7.02-2.27-7.69-8.02h20.41c.55-10.78-4.7-16.31-13-16.31M893.34,119.02c.72-4.2,3.26-6.91,7.3-6.91,3.32,0,6.36,2.21,6.64,6.91h-13.94Z"/>
      <path class="cls-5" d="M1066.32,107.13c-7.74,0-13.83,5.53-13.83,14.66s5.53,14.65,14.1,14.65c6.36,0,11.45-3.6,12.72-9.4h-6.08c-.83,2.6-3.32,4.42-6.64,4.42-3.48,0-7.02-2.27-7.69-8.02h20.41c.55-10.78-4.7-16.31-13-16.31M1059.02,119.02c.72-4.2,3.26-6.91,7.3-6.91,3.32,0,6.36,2.21,6.64,6.91h-13.93Z"/>
      <rect class="cls-5" x="1084.51" y="96.07" width="6.58" height="6.36"/>
      <rect class="cls-5" x="1110.61" y="96.07" width="6.36" height="39.82"/>
      <rect class="cls-5" x="1084.62" y="107.68" width="6.36" height="28.2"/>
      <path class="cls-5" d="M1012.95,113.49h-.28v-5.81h-6.08v28.2h6.36v-15.21c0-5.53,2.21-7.47,7.19-7.47h2.77v-5.81h-2.49c-3.59,0-5.81,1.94-7.47,6.08"/>
      <path class="cls-5" d="M1136.05,107.13c-7.74,0-13.83,5.53-13.83,14.66s5.53,14.65,14.1,14.65c6.36,0,11.45-3.6,12.72-9.4h-6.08c-.83,2.6-3.32,4.42-6.64,4.42-3.48,0-7.02-2.27-7.69-8.02h20.41c.55-10.78-4.7-16.31-13-16.31M1128.75,119.02c.72-4.2,3.26-6.91,7.3-6.91,3.32,0,6.36,2.21,6.64,6.91h-13.94Z"/>
      <rect class="cls-5" x="1097.62" y="96.07" width="6.36" height="39.82"/>
      <path class="cls-5" d="M1031.75,114.87c0-1.94,1.94-3.04,4.98-3.04s4.98,1.11,5.53,3.59h5.81c-.55-5.53-4.92-8.3-11.34-8.3s-10.51,3.04-10.51,8.3c0,11.34,17.14,6.64,17.14,12.72,0,1.94-1.94,3.6-5.53,3.6-3.87,0-6.08-1.66-6.64-4.7h-5.81c.55,5.81,4.42,9.4,12.44,9.4,6.91,0,11.06-3.59,11.06-8.85,0-11.34-17.14-6.64-17.14-12.72"/>
      <path class="cls-5" d="M1099.22,52.42l-6.36,1.27v6.47h-5.81v5.25h5.81v16.87c0,3.87,2.21,6.08,6.08,6.08h7.47v-5.25h-4.42c-2.21,0-2.77-.55-2.77-2.76v-14.93h7.19v-5.25h-7.19v-7.74Z"/>
      <path class="cls-5" d="M1132.68,80.07c0-11.34-17.14-6.64-17.14-12.72,0-1.93,1.93-3.04,4.98-3.04s4.98,1.11,5.53,3.6h5.81c-.55-5.53-4.92-8.3-11.34-8.3s-10.51,3.04-10.51,8.3c0,11.34,17.14,6.64,17.14,12.72,0,1.94-1.94,3.59-5.53,3.59-3.87,0-6.08-1.66-6.64-4.7h-5.81c.55,5.81,4.42,9.4,12.44,9.4,6.91,0,11.06-3.59,11.06-8.85"/>
      <path class="cls-5" d="M1038.06,77.86h15.32l3.65,10.51h7.36l-14.6-39.82h-8.07l-14.38,39.82h6.97l3.76-10.51ZM1043.76,61.82c.77-2.21,1.27-3.59,1.82-6.08h.28c.66,2.49,1.1,3.87,1.88,6.08l3.71,10.51h-11.45l3.76-10.51Z"/>
      <path class="cls-5" d="M987.02,88.36l3.87-5.81c1.33-1.99,2.88-4.53,2.88-4.53h.28s1.44,2.6,2.6,4.53l3.43,5.81h7.63l-10.62-14.93,9.24-13.27h-6.53l-2.82,4.31c-1.27,1.99-2.76,4.53-2.76,4.53h-.28s-1.55-2.6-2.76-4.53l-2.76-4.31h-7.24l9.4,13.27-10.51,14.93h6.97Z"/>
      <path class="cls-5" d="M1084.84,59.88h-2.49c-3.59,0-5.81,1.94-7.47,6.08h-.28v-5.81h-6.08v28.2h6.36v-15.21c0-5.53,2.21-7.47,7.19-7.47h2.76v-5.81Z"/>
      <path class="cls-5" d="M939.46,84.21h.22l.83,4.15h5.81l.28-.28-1.55-6.08v-12.44c0-6.08-3.15-9.95-10.89-9.95-7.19,0-11.89,3.59-12.17,9.4h6.08c.28-2.77,1.66-4.7,5.81-4.7,3.32,0,4.98,1.38,4.98,3.32,0,2.82-3.04,3.71-6.64,4.53-5.14,1.16-11.34,2.21-11.34,8.74,0,5.25,3.87,8.02,9.68,8.02,3.87,0,7.19-1.66,8.9-4.7M931.66,84.49c-2.49,0-4.42-1.27-4.42-3.87,0-2.93,2.93-3.87,6.03-4.7,1.99-.5,3.93-1.11,5.64-1.94h.22v3.59c0,4.43-3.21,6.91-7.47,6.91"/>
      <path class="cls-5" d="M879.07,67.62v-.28c3.7-1.27,5.64-4.09,5.64-8.3,0-6.58-4.7-10.51-12.55-10.51h-15.76v39.82h16.59c8.46,0,13.55-4.26,13.55-11.34,0-4.92-2.49-8.07-7.47-9.4M863.31,53.8h8.3c4.31,0,6.64,2.1,6.64,6.08s-2.16,5.7-6.91,5.7h-8.02v-11.78ZM872.44,83.11h-9.12v-12.44h8.85c5.09,0,7.35,1.88,7.35,6.08s-2.32,6.36-7.08,6.36"/>
      <path class="cls-5" d="M904.51,59.61c-7.74,0-13.83,5.53-13.83,14.65s5.53,14.65,14.1,14.65c6.36,0,11.45-3.59,12.72-9.4h-6.08c-.83,2.6-3.32,4.42-6.64,4.42-3.48,0-7.02-2.27-7.69-8.02h20.41c.55-10.78-4.7-16.31-13-16.31M897.21,71.5c.72-4.2,3.26-6.91,7.3-6.91,3.32,0,6.36,2.21,6.64,6.91h-13.93Z"/>
      <rect class="cls-5" x="1008.81" y="71.05" width="15.48" height="5.25"/>
      <path class="cls-5" d="M969.27,76.2c0,4.7-2.49,7.47-6.36,7.47-3.43,0-4.98-1.94-4.98-5.53v-17.97h-6.36v19.08c0,5.81,3.32,9.68,8.85,9.68,4.15,0,6.97-1.66,8.9-4.7h.22v4.15h6.08v-28.2h-6.36v16.04Z"/>
      <path class="cls-5" d="M740.11,109.73c-.36-.36-.73-.85-.97-1.21-.12-.36-.12-.61-.24-.97,0-.48,0-1.09-.24-1.58-.24-.97-.61-1.94-.97-2.91-.24-.48-.73-.97-.73-1.58,0,0-.12-.12-.24-.12-1.46-1.09-1.58-2.55-2.31-3.89-.24-.24-.36-.61-.61-.85-.49-.24-.85-.73-.97-1.21,0-.49-.48-.85-1.21-.97-1.46-.36-2.43-1.09-2.91-1.94-.61-.85-1.21-1.34-2.31-1.58-.36,0-.73-.24-.97-.36-.48-.12-.97-.36-1.46-.49-2.06-.36-4.13-.73-6.43-.61-.49,0-1.09-.24-1.58-.24-.85.12-1.58-.12-2.43-.24-.73-.12-1.58-.24-2.31-.49-.24,0-.61-.12-.97-.12-1.21,0-2.31-.12-3.52-.48h.61c.36-.12.73-.12.97-.12.36.12.73,0,1.09,0h.49c.49-.12.61.24,1.09.12h1.09c.12-.12.73-.12.85-.24.12-.12.12-.24.24-.24.24-.12.36-.12.24-.49v-.12c.12-.24.36-.61.48-.85.24-.36.24-.85.36-1.21,0-.24-.12-.36,0-.61.12-.12.24-1.46.61-1.82.36-.36.48-2.79.85-3.16,0-.12.12-.12.12-.24v-.24c-.12-.12-.12-.36,0-.49v-.24c-.24-.24-.12-.73-.24-1.09,0-.24-.12-.48-.24-.61v-.24c.12-.36-.73-2.43-.97-2.55-.12,0-.24,0-.36-.12,0-.12-.12-.24-.12-.36-.12-.24-.24-.49-.36-.61-.24-.12-.24-.24-.24-.48-.12-.12-.24-.24-.36-.36-.12-.12-.24-.12-.49-.24-.12,0-.12-.12-.24-.24v-.12c-.36-.12-.61-.36-.85-.48-.12-.12-.24-.12-.36-.24-.12,0-2.43-2.55-2.67-2.55-.12-.12-.24-.24-.24-.36s-.12-.36-.24-.49c-.12-.12-.12-.24-.36-.36,0,0-.12-.12-.24-.12-.12-.12-.24-.12-.49-.12-.48.12-1.21-1.09-1.82-1.09-.12,0-.24-.12-.48-.12-.12-.12-.36-.36-.49-.49-.24-.12-.36-.12-.49-.36-.12,0-.24,0-.24-.12h-.36c-.24,0-.49-.12-.61-.24-.24-.12-.48-.12-.73-.24-.24,0-.36-.12-.49-.24-.36-.36-.85-.49-1.34-.85-.24,0-.36-.12-.61-.36-.12,0-.24-.12-.36-.12-.36,0-.61-.24-.85-.36-.24-.12-.48-.12-.61-.24-.24-.12-.36-.24-.61-.36-.12-.12-.24-.24-.49-.24-.24-.12-.36-.36-.61-.48-.24-.24-2.06-2.31-2.43-2.55,0,0-.12,0-.12-.12-.12-.24-.24-.36-.49-.36-.24-.12-.49-.24-.61-.36-.24-.24-.61-.36-.97-.36-.73-.12-1.46-.48-2.18-.73-.12,0-.12-.12-.24-.12-.24-.12-.61-.24-.85-.36-.36-.12-.48-.36-.73-.48-.36-.12-.61-.24-.85-.36-.12-.12-.73-1.09-.97-1.34-.36-.24-1.09-1.94-1.58-2.06-.12,0-.24-.12-.24-.12q-.36-.48-.85-.85c-.12,0-.36-.12-.49-.24-.36-.12-.61-.24-.85-.36-.12-.12-.24-.12-.36-.24,0-.12-.12-.12-.24-.12-.61-.12-1.09-.24-1.7-.24h-.48c-.49-.12-.85-.24-1.34-.24h-3.03c-.49.12-1.09.12-1.7.12h-.36c-.36,0-.73-.12-1.09-.12-.49,0-.97,0-1.46.12-.36,0-.85.12-1.21.24-.36.12-.61,0-.85,0h-.85c-.36,0-.61,0-.85.12-.24.12-.36.12-.61,0h-.24c-.49-.12-.85,0-1.21.36-.12,0-.36.12-.49.24-.12.12-.36.24-.61.36-.24.12-.61.24-.97.36-.36,0-.73.12-1.09.36-.24.12-.61.36-.85.49-.24.24-.61.49-.97.49-.12.12-.36.24-.48.36-.36.36-.73.49-1.21.61-.12,0-1.34,1.09-1.34,1.34-.12.12-.73,1.21-.73,1.34s-.36,1.94-.36,2.06c-.12.12-.24.36-.24.61v.49c0,.24-.12.36-.12.49s-.12.24-.24.36c-.12.24-.24.36-.24.49,0,.24-.24.49-.36.49-.49.12-.97.36-1.34.73h-.12c-.36.12-.73.36-.85.73,0,.12-.12.12-.24.24-.12,0-.12.24-.24.36-.12.24-.24.49-.36.73-.12.24-.36.36-.49.48-.24.12-.36.24-.48.49,0,.12-.12.24-.12.36-.12.24-2.67,3.76-2.79,4.01v.12c0,.36-.12.61-.24.85,0,.12,0,.24-.12.36s-.36.36-.36.61c-.12.24-.36.36-.61.48-.12,0-.49,1.94-.61,2.19,0,.36.12.61.24.97.12.12.12.24.12.49-.12.12-.12.36-.12.61-.12.24-.12.48.12.73.12.36.24.73.24,1.09,0,.24,0,.36-.12.49-.12.36-.12.61-.24.97-.12.24,0,.36,0,.61.12.24.12.36-.12.61v.36c.24.61.36,1.21.61,1.82.12.12.12.36.12.49-.12.36-.12.73-.12,1.09,0,.24-.12.49-.12.73,0,.12,0,.36-.12.61.12.12.24.24.24.36.12.12.24.24.36.24q.12.12.24.12c.12.24.36.36.61.61.12.12.36.24.48.36.24.12.24.24.49.36,0,.36.36.61.49.73.36.12.73.24,1.09.36.36.12.73.24,1.21.24.12,0,.24,0,.36.12.61.24,1.34.36,1.94.61.36.12.73.36.97.61.36.12.61.24.97.36.36,0,.73,0,1.09.12h1.82c.49.12.97.12,1.46.12s.97.12,1.58.12c.12,0,.36,0,.61.12h.61c.36-.12.73-.12,1.09-.24.48-.12,1.09-.24,1.7-.24.12,0,.24,0,.36-.12.12,0,.24,0,.36-.12.49-.24.97-.36,1.46-.36.49-.12.97-.12,1.34-.24.24-.12.49-.12.73-.12.36,0,.85,0,1.21.12.61,0,1.21.12,1.82.12.12,0,.36,0,.49.12.36,0,.73.12,1.21,0h.85c.12,0,.36,0,.61-.12.12-.12.24-.12.36-.12.73,0,1.34-.12,1.94-.24.61-.12,1.21-.24,1.82-.24.12,0,.24-.12.36-.12.36-.12.73-.12,1.21-.12h1.94c.24,0,.36.12.61.12.12,0,.36.12.48.12.24,0,.36-.24.61-.24.24-.12.49-.12.73-.24h.12c.24,0,.49,0,.73-.12.24-.12.48-.12.73-.12h.49c.73,0,1.58,0,2.31.12h.49c.61-.12,1.09-.12,1.58,0h.24c.36-.12.73,0,1.09,0,.61.12,1.21.24,1.82.36h1.82c.24,0,.36.12.48.12h.49c.61-.12,1.21-.12,1.82,0h.48c.49-.12,1.09-.24,1.58-.24h.73c-1.34.48-2.67,2.55-4.25,2.67-.36.12-.85.12-1.21.24-1.34.36-2.55.73-3.88.97-1.21.24-2.79,2.06-4.25,1.94-.24,0-.61.12-.97.24-1.58.36-14.08,4.73-15.78,4.98-1.94.36-3.4,1.82-5.34,2.31-.24.12-.48.12-.61.12-1.94,0-3.76,2.19-5.46,2.67-.85.24-1.34.85-1.7,1.46-.73,1.09-3.03-.12-4.01.73-.36.24-.48.49-.73.61-.73.61-1.7,1.21-2.55,1.58-.61.12-.97.61-1.34,1.09-.48.61-.73.24-1.34.73-.36.24-.85,1.46-1.7,2.43-.49.61-.85,1.09-.36,1.82.48.61-.36,1.58-.49,2.43-.24.97-.49,2.06-.12,2.79.61,1.21.49,1.34,1.09,2.67.24.73.36,1.46.61,2.19,0,.48.12.85.49,1.21.36.36.73.97.97,1.46.24.48.61.85,1.09,1.09,1.09.61,2.06,1.21,3.4,1.34.36.12.73.36.97.49.36.36.85.48,1.46.73.49.12,1.09.24,1.58.61.85.73,2.19,1.09,3.16,1.7.24.12.36.24.61.24,1.46.49,6.68,2.31,8.74,2.31h52.8c1.09,0,2.31-1.34,2.67-1.46.73-.61,4.49-1.82,4.85-2.55.61-1.34,1.34-1.46,2.19-2.55.73-.85,2.31-1.82,2.43-2.43.24-.97,1.21-2.67,1.94-3.28,1.94-1.7,3.64-2.67,3.88-4.61.12-.48.12-.97.12-1.34-.12-.85,0-1.58.24-2.43.24-.36.24-.73.24-1.09-.12-1.09-.36-2.19-.49-3.28,0-.49-.24-.85-.49-1.21"/>
      <path class="cls-5" d="M789.03,49.39c-.12.12-.24.24-.36.36-.36.24-.73.61-1.09,1.09-.12.24-.49.49-.73.61-.36.12-.73.36-.85.73,0,.36-.36.49-.61.61-.24.12-.48.24-.61.49-.49.73-1.09,1.09-1.7,1.7,0,.12-.12.12-.12.12-.73.12-.97.73-1.34,1.21-.24.24-.36.61-.61.85-.12.36-.48.61-.73.73-.36.12-.61.36-.73.73-.12.36-.36.85-.36,1.34-.12.24-.24.49-.36.73-.12.24-.24.36-.36.49-.36.12-.61.49-.85.85-.12.36-.36.61-.73.85-.49.49-.85.97-.97,1.58-.12.49-.36.73-.61,1.09-.24.12-.36.36-.36.61-.12.24-.24.36-.48.61-.36.24-.61.61-.73,1.09-.12.61-.48,1.09-.85,1.58-.36.36-.61.73-.73,1.21,0,.12-.12.24-.12.24-.36.61-.73,1.21-1.09,1.82-.24.36-.36.73-.61.97-.36.61-.61,1.09-1.09,1.58-.12.24-.24.49-.24.73-.12.61-.36,1.09-.97,1.34-.36.24-.48.49-.48.85-.12.49-.36.73-.61,1.09-.36.24-.49.48-.49.85-.12.36-.12.61-.24.85-.12.24-.12.36-.12.61,0,.36-.12.73-.49.85-.24.12-.36.36-.36.61-.24.49-.61.85-.85,1.34-.49.85-1.21,1.58-1.46,2.55-.36.49-.36,1.09-.49,1.58-.12.36-.12.73,0,1.09.24.48.24.85,0,1.21-.12.24-.12.36-.24.61,0,.24-.12.49-.36.61-.12.12-.24.36-.24.61,0,.73-.36,1.34-.85,1.94-.36.49-.73,1.09-.85,1.7,0,.49-.24.85-.49,1.09-.36.49-.61,1.09-.73,1.58-.24.36-.36.73-.61.97-.36.24-.73.61-.85,1.09-.12.24-.24.48-.49.73-.49.36-.73.85-1.09,1.34q-.12,0-.24.12c-.24.61-.85.97-1.21,1.46-.12.12-.24.24-.36.36-.36.24-.49.49-.49.85-.12.24-.12.49-.24.73-.12.49-.24.85-.61.97-.12.12-.12.24-.24.36-.24.36-.61.61-1.09.73-.24.12-.61.36-.85.48,0,0-.12,0-.12.12-.12,0-.24.12-.24.12,0,.49-.61.61-.61,1.21-.12.24-.24.49-.61.73h-.12c-.61.24-.61.73-.61,1.34v.61c0,.61-.12.97-.36,1.46-.12.49-.24.97-.36,1.34-.12.49-.36.85-.48,1.34-.24.36-.36.73-.24,1.21,0,.48,0,.97-.36,1.34-.12,0-.12.12-.12.24.12.36,0,.73,0,1.09v.36c.24.48.61,1.09.85,1.58.12.36.12.73.36.97-.12.85-.12,1.7,0,2.55v.24c-.12.49,0,.85,0,1.34.12.36,0,.73,0,1.09-.12,1.21-.12,2.31.12,3.4.12.49.36.73.36,1.21v1.94h34.72v-56.33h24.76v56.33h24.28V48.55h-41.64c-.24.24-.48.48-.85.85"/>
    </g>
  </g>
  <g>
    <polygon class="cls-3" points="1469.85 47.5 1463.63 30.39 1465.8 30.39 1470.65 43.61 1475.01 30.39 1478.87 30.39 1472.8 47.5 1469.85 47.5"/>
    <polygon class="cls-3" points="1448.38 94.36 1441.23 94.36 1441.23 89.47 1454.04 89.47 1445.39 102.35 1453.3 102.35 1453.3 106.58 1439.92 106.58 1448.38 94.36"/>
    <polygon class="cls-3" points="1380.82 113.42 1374.81 132.42 1368.9 113.42 1363.77 113.42 1363.77 136.13 1366.1 136.13 1366.1 117.74 1373.07 136.13 1376.81 136.13 1383.37 117.86 1383.37 136.13 1385.55 136.13 1385.55 113.42 1380.82 113.42"/>
    <g>
      <path class="cls-3" d="M1286.91,75h-48.59V24.91h48.59v8.13h-23.68c-9.27,0-16.78,7.51-16.78,16.78v.28c0,9.27,7.51,16.78,16.78,16.78h23.68v8.13Z"/>
      <path class="cls-3" d="M1309.38,75h-8.13V24.91h50.09v35.11l-41.96-.03v15.01ZM1309.38,51.86h24.62c5.09.02,9.21-4.1,9.21-9.19v-.43c0-5.08-4.12-9.2-9.2-9.2h-24.63v18.82Z"/>
      <path class="cls-3" d="M1288.41,136.1h-50.09v-50.09h29.11v15h20.98s0,35.09,0,35.09ZM1246.44,127.97h24.54c5.13,0,9.29-4.16,9.29-9.29v-.26c0-5.13-4.16-9.29-9.29-9.29h-3.56v.04h-8.13v-.04h-12.85v18.83ZM1246.44,94.14v6.88h9.56c1.82,0,3.29-1.48,3.29-3.3v-.29c0-1.82-1.47-3.29-3.29-3.29h-9.56Z"/>
      <path class="cls-3" d="M1330.06,86.01h-29.13v50.09h8.13v-35.74c0-3.44,2.79-6.22,6.22-6.22h.42c3.44,0,6.22,2.78,6.22,6.22v35.74h8.13v-35.74c0-3.44,2.79-6.22,6.22-6.22h.43c3.44,0,6.22,2.78,6.22,6.22v35.74h8.13v-50.09h-21Z"/>
      <path class="cls-3" d="M1381.66,40.97c-1.03,4.39-4.14,6.85-9.36,6.85s-8.99-3.67-8.99-11.33c0-8.62,3.89-12.04,9.3-12.01,4.42.03,7.59,1.49,8.81,6.28l-2.12,1.77c-1.09-1.37-3.3-2.24-6.69-2.24-4.7,0-7.34,2.52-7.37,6.56-.03,4.07,2.43,6.63,7.5,6.63,3.55,0,6.28-1.49,7.09-3.92l1.84,1.4Z"/>
      <path class="cls-3" d="M1384.77,39.26c0-6.63,2.92-9.18,7.16-9.18s7.16,2.55,7.16,9.18c0,5.97-2.99,8.56-7.16,8.56s-7.16-2.58-7.16-8.56M1397.24,39.26c-.03-2.49-1.8-4.26-5.32-4.26s-5.29,1.77-5.32,4.26c-.03,3.7,2.43,4.92,5.32,4.92s5.35-1.21,5.32-4.92"/>
      <path class="cls-3" d="M1403.9,38.48v9.02h-2.02v-17.11h2.02v2.8c.9-2.02,2.8-3.11,5.13-3.11,4.14,0,5.91,1.9,5.91,7.99v9.43h-1.96v-7.5c0-3.17-1.18-4.6-4.11-4.6-2.36,0-4.14.9-4.98,3.08"/>
      <path class="cls-3" d="M1430.59,32.82l-.59,3.27c-.81-.99-2.24-1.87-4.85-1.87-2.33,0-3.67.9-3.67,2.05,0,.81.9,1.37,3.64,1.65,4.45.44,6.07,1.99,6.07,5.26s-2.18,4.64-6.19,4.64c-3.67,0-5.44-1.53-6.35-3.21l.75-3.11c.97,1.24,2.55,2.33,5.35,2.33s3.95-.93,3.95-1.99c0-.84-1.12-1.4-3.76-1.68-4.05-.4-5.79-1.62-5.79-5.29,0-3.27,2.05-4.79,5.75-4.79,2.77,0,4.7,1,5.69,2.74"/>
      <path class="cls-3" d="M1441.6,47.81c-4.67,0-7.06-3.58-7.06-8.62,0-6.63,3.27-9.12,7-9.12,4.23,0,7,3.11,7,10.2h-12.1c.4,2.74,2.24,4.04,5.1,4.08,2.74.03,4.04-.62,4.95-1.87l1.46,1.09c-1.03,2.36-3.33,4.23-6.35,4.23M1436.44,38.26h10.08c0-1.9-1.96-3.76-5.13-3.76-2.33,0-4.51,1.4-4.95,3.76"/>
      <path class="cls-3" d="M1455.57,47.5h-2.05v-11.73h-1.87v-5.38h2.64l1.06,2.43c.72-1.87,2.27-2.74,3.55-2.74,1.49,0,2.21.47,3.02,1.15l-1.18,5.17c-.37-.81-1.12-1.15-2.52-1.15-1.53,0-2.64,1.21-2.64,3.39v8.87Z"/>
      <path class="cls-3" d="M1492.46,46.41c-1.09.93-2.55,1.4-4.98,1.4-4.42,0-6.53-2.12-6.53-5.13,0-3.42,2.37-5.35,6.22-5.35,1.46,0,3.64.28,4.95,1.18-.15-2.92-1.52-4.14-4.45-4.14-2.65,0-4.2.84-5.04,1.84l-.12-4.01c1.18-1.4,3.14-2.11,5.48-2.11,4.23,0,6.13,1.84,6.13,7.59v9.83h-1.25l-.4-1.09ZM1492.15,43.18v-2.21c-1.28-.96-2.68-1.43-4.42-1.43-2.89,0-4.36,1.03-4.36,2.58,0,1.28,1.77,2.43,4.14,2.43,1.93,0,3.64-.43,4.64-1.37"/>
      <path class="cls-3" d="M1503.91,47.81c-2.43,0-4.2-1.31-4.2-5.07v-7.19h-2.46v-4.85h2.46v-4.05h2.02v4.05h4.67v4.85h-4.67v5.04c0,2.24,1.06,3.02,2.58,3.05,1.31.03,2.36-.4,2.86-.96l.84,3.14c-.56,1.24-2.33,1.99-4.11,1.99"/>
      <path class="cls-3" d="M1510.44,39.26c0-6.63,2.92-9.18,7.16-9.18s7.15,2.55,7.15,9.18c0,5.97-2.98,8.56-7.15,8.56s-7.16-2.58-7.16-8.56M1522.92,39.26c-.03-2.49-1.8-4.26-5.32-4.26s-5.29,1.77-5.32,4.26c-.03,3.7,2.43,4.92,5.32,4.92s5.35-1.21,5.32-4.92"/>
      <path class="cls-3" d="M1531.44,36.11h-3.89v-5.1h5.91v16.49h-2.02v-11.39ZM1530.94,28.06c-1.8,0-2.8-.84-2.8-2.61s.93-2.52,2.8-2.52c1.68,0,2.68.72,2.68,2.52s-1.06,2.61-2.68,2.61"/>
      <path class="cls-3" d="M1542.05,47.5h-2.05v-11.73h-1.87v-5.38h2.64l1.06,2.43c.72-1.87,2.27-2.74,3.55-2.74,1.49,0,2.21.47,3.02,1.15l-1.18,5.17c-.37-.81-1.12-1.15-2.52-1.15-1.53,0-2.64,1.21-2.64,3.39v8.87Z"/>
      <path class="cls-3" d="M1557.94,47.81c-4.67,0-7.06-3.58-7.06-8.62,0-6.63,3.27-9.12,7-9.12,4.23,0,7,3.11,7,10.2h-12.1c.41,2.74,2.24,4.04,5.1,4.08,2.74.03,4.04-.62,4.95-1.87l1.46,1.09c-1.03,2.36-3.33,4.23-6.35,4.23M1552.78,38.26h10.08c0-1.9-1.96-3.76-5.13-3.76-2.33,0-4.51,1.4-4.95,3.76"/>
      <path class="cls-3" d="M1366.45,71.13v5.91h-2.21v-22.71h6.85c5.51,0,8.55,2.39,8.55,8.71,0,5.6-2.92,8.09-8.59,8.09h-4.6ZM1377.74,63.04c-.03-2.11-1.87-3.61-5.44-3.61h-5.85v7.09h5.85c3.52,0,5.48-1.56,5.44-3.48"/>
      <path class="cls-3" d="M1387.72,65.66h-3.89v-5.1h5.91v16.49h-2.02v-11.39ZM1387.22,57.6c-1.8,0-2.8-.84-2.8-2.61s.93-2.52,2.8-2.52c1.68,0,2.68.72,2.68,2.52s-1.06,2.61-2.68,2.61"/>
      <path class="cls-3" d="M1400.85,77.35c-4.67,0-7.06-3.58-7.06-8.62,0-6.63,3.27-9.12,7-9.12,4.23,0,7,3.11,7,10.2h-12.1c.41,2.74,2.24,4.04,5.1,4.08,2.74.03,4.04-.62,4.95-1.87l1.46,1.09c-1.03,2.36-3.33,4.23-6.35,4.23M1395.69,67.8h10.08c0-1.9-1.96-3.76-5.13-3.76-2.33,0-4.51,1.4-4.95,3.76"/>
      <path class="cls-3" d="M1414.82,77.04h-2.05v-11.73h-1.87v-5.38h2.64l1.06,2.43c.72-1.87,2.27-2.74,3.55-2.74,1.49,0,2.21.47,3.02,1.15l-1.18,5.17c-.37-.81-1.12-1.15-2.52-1.15-1.53,0-2.64,1.21-2.64,3.39v8.87Z"/>
      <path class="cls-3" d="M1428.19,77.04h-2.05v-11.73h-1.87v-5.38h2.64l1.06,2.43c.72-1.87,2.27-2.74,3.55-2.74,1.49,0,2.21.47,3.02,1.15l-1.18,5.17c-.37-.81-1.12-1.15-2.52-1.15-1.53,0-2.64,1.21-2.64,3.39v8.87Z"/>
      <path class="cls-3" d="M1444.09,77.35c-4.67,0-7.06-3.58-7.06-8.62,0-6.63,3.27-9.12,7-9.12,4.23,0,7,3.11,7,10.2h-12.1c.41,2.74,2.24,4.04,5.1,4.08,2.74.03,4.04-.62,4.95-1.87l1.46,1.09c-1.03,2.36-3.33,4.23-6.35,4.23M1438.92,67.8h10.08c0-1.9-1.96-3.76-5.13-3.76-2.33,0-4.51,1.4-4.95,3.76"/>
      <path class="cls-3" d="M1363.58,83.87h8.09c5.04,0,7.47,2.55,7.47,5.94s-.81,4.7-2.49,5.38c2.21.78,2.99,2.27,2.99,5.23,0,3.52-2.55,6.16-7.37,6.16h-8.68v-22.71ZM1373.32,94.11c2.92,0,3.58-1.18,3.58-2.67,0-1.28-.9-2.58-4.2-2.58h-6.88v5.26h7.5ZM1373.32,101.61c2.77,0,3.98-1.31,3.98-2.77s-.96-2.49-4.07-2.49h-7.41v5.26h7.5Z"/>
      <path class="cls-3" d="M1395.1,105.5c-1.09.93-2.55,1.4-4.98,1.4-4.42,0-6.53-2.12-6.53-5.13,0-3.42,2.36-5.35,6.22-5.35,1.46,0,3.64.28,4.95,1.18-.16-2.92-1.52-4.14-4.45-4.14-2.64,0-4.2.84-5.04,1.84l-.12-4.01c1.18-1.4,3.14-2.11,5.47-2.11,4.23,0,6.13,1.84,6.13,7.59v9.83h-1.24l-.4-1.09ZM1394.79,102.26v-2.21c-1.28-.96-2.68-1.43-4.42-1.43-2.89,0-4.36,1.03-4.36,2.58,0,1.28,1.77,2.43,4.14,2.43,1.93,0,3.64-.43,4.64-1.37"/>
      <path class="cls-3" d="M1404.55,106.58h-2.05v-11.73h-1.87v-5.38h2.64l1.06,2.43c.72-1.87,2.27-2.74,3.55-2.74,1.49,0,2.21.47,3.02,1.15l-1.18,5.17c-.37-.81-1.12-1.15-2.52-1.15-1.53,0-2.64,1.21-2.64,3.39v8.87Z"/>
      <path class="cls-3" d="M1415.63,103.91l-.22,2.68h-1.71v-24.27h2.02v9.92c1.06-2.3,3.24-3.05,5.23-3.08,3.83-.03,6.41,2.46,6.41,9.15,0,5.44-2.4,8.59-6.56,8.59-2.27,0-4.17-1.28-5.16-2.99M1425.52,98.31c0-2.43-1.59-4.11-4.79-4.11-3.64,0-4.98,1.71-5.01,4.11v3.08c1.03,1.4,2.4,1.84,4.88,1.84,3.3,0,4.95-1.9,4.92-4.92"/>
      <path class="cls-3" d="M1434.07,95.2h-3.89v-5.1h5.91v16.49h-2.02v-11.39ZM1433.58,87.14c-1.8,0-2.8-.84-2.8-2.61s.93-2.52,2.8-2.52c1.68,0,2.68.72,2.68,2.52s-1.06,2.61-2.68,2.61"/>
      <path class="cls-3" d="M1463.69,106.9c-4.67,0-7.06-3.58-7.06-8.62,0-6.63,3.27-9.12,7-9.12,4.23,0,7,3.11,7,10.2h-12.1c.41,2.74,2.24,4.04,5.1,4.08,2.74.03,4.04-.62,4.95-1.87l1.46,1.09c-1.03,2.36-3.33,4.23-6.35,4.23M1458.52,97.34h10.08c0-1.9-1.96-3.76-5.13-3.76-2.33,0-4.51,1.4-4.95,3.76"/>
      <path class="cls-3" d="M1479.65,106.9c-2.43,0-4.2-1.31-4.2-5.07v-7.19h-2.46v-4.85h2.46v-4.05h2.02v4.05h4.67v4.85h-4.67v5.04c0,2.24,1.06,3.02,2.58,3.05,1.31.03,2.36-.4,2.86-.96l.84,3.14c-.56,1.24-2.33,1.99-4.11,1.99"/>
      <path class="cls-3" d="M1401.32,135.04c-1.09.93-2.55,1.4-4.98,1.4-4.42,0-6.53-2.12-6.53-5.13,0-3.42,2.36-5.35,6.22-5.35,1.46,0,3.64.28,4.95,1.18-.16-2.92-1.52-4.14-4.45-4.14-2.65,0-4.2.84-5.04,1.84l-.12-4.01c1.18-1.4,3.14-2.11,5.47-2.11,4.23,0,6.13,1.84,6.13,7.59v9.83h-1.25l-.4-1.09ZM1401.01,131.8v-2.21c-1.28-.96-2.68-1.43-4.42-1.43-2.89,0-4.35,1.03-4.35,2.58,0,1.28,1.77,2.43,4.14,2.43,1.93,0,3.64-.43,4.64-1.37"/>
      <path class="cls-3" d="M1410.77,136.13h-2.05v-11.73h-1.87v-5.38h2.64l1.06,2.43c.72-1.87,2.27-2.74,3.55-2.74,1.49,0,2.21.47,3.02,1.15l-1.18,5.17c-.37-.81-1.12-1.15-2.52-1.15-1.53,0-2.64,1.21-2.64,3.39v8.87Z"/>
      <path class="cls-3" d="M1432.14,121.44l-.59,3.27c-.81-.99-2.24-1.87-4.85-1.87-2.33,0-3.67.9-3.67,2.05,0,.81.9,1.37,3.64,1.65,4.45.44,6.07,1.99,6.07,5.26s-2.18,4.64-6.19,4.64c-3.67,0-5.44-1.53-6.35-3.21l.75-3.11c.97,1.24,2.55,2.33,5.35,2.33s3.95-.93,3.95-1.99c0-.84-1.12-1.4-3.76-1.68-4.05-.4-5.79-1.62-5.79-5.29,0-3.27,2.05-4.79,5.75-4.79,2.77,0,4.7,1,5.69,2.74"/>
      <path class="cls-3" d="M1443.16,136.44c-4.67,0-7.06-3.58-7.06-8.62,0-6.63,3.27-9.12,7-9.12,4.23,0,7,3.11,7,10.2h-12.1c.4,2.74,2.24,4.04,5.1,4.08,2.74.03,4.04-.62,4.95-1.87l1.46,1.09c-1.03,2.36-3.33,4.23-6.35,4.23M1437.99,126.89h10.08c0-1.9-1.96-3.76-5.13-3.76-2.33,0-4.51,1.4-4.95,3.76"/>
      <path class="cls-3" d="M1456.78,124.74h-3.89v-5.1h5.91v16.49h-2.02v-11.39ZM1456.28,116.68c-1.8,0-2.8-.84-2.8-2.61s.93-2.52,2.8-2.52c1.68,0,2.68.72,2.68,2.52s-1.06,2.61-2.68,2.61"/>
      <path class="cls-3" d="M1465.49,131.49v-14.96h-2.74v-4.67h4.85v17.27c0,1.87.68,2.95,2.49,2.95,1.24,0,2.18-.34,2.77-.96l.87,3.39c-.68,1-1.96,1.93-4.2,1.93-2.74,0-4.04-1.46-4.04-4.95"/>
      <path class="cls-3" d="M1477.31,131.49v-14.96h-2.74v-4.67h4.85v17.27c0,1.87.68,2.95,2.49,2.95,1.24,0,2.18-.34,2.77-.96l.87,3.39c-.68,1-1.96,1.93-4.2,1.93-2.74,0-4.04-1.46-4.04-4.95"/>
      <path class="cls-3" d="M1493.55,136.44c-4.67,0-7.06-3.58-7.06-8.62,0-6.63,3.27-9.12,7-9.12,4.23,0,7,3.11,7,10.2h-12.1c.41,2.74,2.24,4.04,5.1,4.08,2.74.03,4.04-.62,4.95-1.87l1.46,1.09c-1.03,2.36-3.33,4.23-6.35,4.23M1488.39,126.89h10.08c0-1.9-1.96-3.76-5.13-3.76-2.33,0-4.51,1.4-4.95,3.76"/>
    </g>
  </g>
  <g>
    <rect class="cls-3" x="1659.54" y="48.6" width="21.83" height="87.79"/>
    <path class="cls-3" d="M1694.05,136.39v-58.36c0-9.97,2.51-17.37,7.54-22.19,5.03-4.82,12.73-7.23,23.11-7.23h15.57v20.48h-15.2c-3.03,0-5.3.77-6.84,2.3-1.53,1.53-2.3,3.79-2.3,6.78v5.76h24.34v20.48h-24.34v32h-21.89Z"/>
    <path class="cls-3" d="M1792.15,136.39v-52.97c0-4.86-.99-8.57-2.97-11.13-1.98-2.55-4.87-3.83-8.67-3.83-3.6,0-6.46,1.25-8.58,3.74-2.12,2.49-3.19,5.84-3.19,10.05v1.04h19.56v20.6h-19.56v32.49h-21.76v-51.87c0-11.36,3.07-20.44,9.2-27.22,6.13-6.78,14.24-10.18,24.34-10.18s18.19,3.38,24.28,10.15c6.09,6.76,9.13,15.85,9.13,27.25v51.87h-21.76Z"/>
    <path class="cls-3" d="M1825.44,136.44v-55.07c0-10.31,2.76-18.6,8.28-24.87,5.52-6.28,12.7-9.42,21.54-9.42,3.99,0,7.73.78,11.24,2.34,3.5,1.56,6.61,3.83,9.31,6.8,2.79-2.93,5.93-5.19,9.42-6.77,3.48-1.58,7.01-2.37,10.58-2.37,9.25,0,16.68,3.1,22.27,9.31,5.59,6.21,8.38,14.53,8.38,24.98v55.07h-21.65v-58.44c0-2.84-.85-5.19-2.54-7.04-1.7-1.86-3.85-2.78-6.46-2.78s-4.79.93-6.53,2.78c-1.74,1.85-2.61,4.2-2.61,7.04v58.44h-21.51v-58.44c0-2.84-.87-5.19-2.61-7.04-1.74-1.86-3.94-2.78-6.6-2.78s-4.77.93-6.46,2.78c-1.7,1.85-2.54,4.2-2.54,7.04v58.44h-21.51Z"/>
    <path class="cls-3" d="M1938.01,135.97v-55.07c0-10.31,2.76-18.6,8.28-24.87,5.52-6.28,12.7-9.42,21.54-9.42,3.99,0,7.73.78,11.24,2.34,3.5,1.56,6.61,3.83,9.31,6.8,2.79-2.93,5.93-5.19,9.42-6.77,3.48-1.58,7.01-2.37,10.58-2.37,9.25,0,16.68,3.1,22.27,9.31,5.59,6.21,8.38,14.53,8.38,24.98v55.07h-21.65v-58.44c0-2.84-.85-5.19-2.54-7.04-1.7-1.86-3.85-2.78-6.46-2.78s-4.79.93-6.53,2.78c-1.74,1.85-2.61,4.2-2.61,7.04v58.44h-21.51v-58.44c0-2.84-.87-5.19-2.61-7.04-1.74-1.86-3.94-2.78-6.6-2.78s-4.77.93-6.46,2.78c-1.7,1.85-2.54,4.2-2.54,7.04v58.44h-21.51Z"/>
  </g>
</svg>